<?xml version="1.0" encoding="UTF-8"?>
<svg width="40px" height="39px" viewBox="0 0 40 39" version="1.1" xmlns="http://www.w3.org/2000/svg" xmlns:xlink="http://www.w3.org/1999/xlink">
    <!-- Generator: Sketch 51.3 (57544) - http://www.bohemiancoding.com/sketch -->
    <title>006-coffee-cup</title>
    <desc>Created with Sketch.</desc>
    <defs></defs>
    <g id="Page-1" stroke="none" stroke-width="1" fill="none" fill-rule="evenodd">
        <g id="Desktop-HD" transform="translate(-907.000000, -371.000000)" fill-rule="nonzero">
            <g id="Kaffe-type" transform="translate(0.000000, 360.000000)">
                <g id="Typer" transform="translate(446.000000, 7.000000)">
                    <g id="Americano" transform="translate(442.000000, 4.000000)">
                        <g id="006-coffee-cup" transform="translate(19.000000, 0.000000)">
                            <path d="M38.0327869,1.45901639 L35.3679109,32.2587995 C35.0861782,35.5161998 32.2337641,38.1803279 29.0296332,38.1803279 L18.4375598,38.1803279 C15.2345639,38.1803279 12.3831901,35.5173578 12.0992822,32.2609225 L9.43431162,32.2609225 C6.80007727,32.2609225 4.36491894,30.802928 2.57805803,28.1572311 C0.915087655,25.6952672 0,22.4507977 0,19.0214373 C0,15.5932348 0.915182228,12.3487653 2.57805803,9.88680142 C4.36595924,7.24004307 6.80007727,5.78204861 9.43431162,5.78204861 L9.80825298,5.78204861 L9.43431162,1.45901639 L38.0327869,1.45901639 Z M32.201893,31.9734537 L33.907232,12.2667417 C31.3640714,12.2667417 31.3640714,13.3475239 28.8209108,13.3475239 C26.2777502,13.3475239 26.2777502,12.2667417 23.7345896,12.2667417 C21.1903886,12.2667417 21.1903886,13.3475239 18.647228,13.3475239 C16.1030271,13.3475239 16.1030271,12.2667417 13.5598665,12.2667417 L15.2652055,31.9734537 C15.4018634,33.5524572 16.883632,34.9379813 18.4375598,34.9379813 L29.0296332,34.9379813 C30.5834665,34.9379813 32.0652351,33.5524572 32.201893,31.9734537 Z M11.81963,29.0186724 L10.0888509,9.02439514 L9.43421705,9.02439514 C7.87716835,9.02439514 6.3709999,9.98407182 5.19526925,11.7263506 C3.89347289,13.6533273 3.17746125,16.2439236 3.17746125,19.0215338 C3.17746125,21.8002055 3.89347289,24.3908018 5.19422895,26.3177785 C6.3709999,28.0599608 7.87716835,29.0185759 9.43421705,29.0185759 L11.81963,29.0186724 Z" id="Shape" fill="#C8FEFF"></path>
                            <path d="M34.0983607,11.9508197 L32.3946557,31.3305734 C32.2581287,32.8833717 30.7777799,34.2459016 29.2253411,34.2459016 L18.6435114,34.2459016 C17.091167,34.2459016 15.6107237,32.8833717 15.4741968,31.3305734 L13.7704918,11.9508197 C16.3112156,11.9509146 16.3112156,13.0137601 18.8529787,13.0137601 C21.3937024,13.0137601 21.3937024,11.9509146 23.9354655,11.9509146 C26.4761893,11.9509146 26.4761893,13.0137601 29.0169131,13.0137601 C31.5576369,13.0137601 31.5576369,11.9508197 34.0983607,11.9508197 Z" id="Shape" fill="#8E4238"></path>
                            <g id="Group" transform="translate(0.000000, 0.147541)" fill="#700D00">
                                <path d="M39.9472381,0.936963506 C39.9480952,0.92712085 39.9478095,0.917373754 39.9482857,0.907531098 C39.9490476,0.893866052 39.950381,0.880201005 39.950381,0.866440399 C39.950381,0.864051405 39.9500952,0.86185353 39.9500952,0.859560096 C39.95,0.847137326 39.9489524,0.834714556 39.9481905,0.822387347 C39.9473333,0.807002224 39.9466667,0.791425982 39.9449524,0.77623198 C39.9438095,0.765815965 39.9419048,0.75568663 39.9402857,0.745366175 C39.9377143,0.728260977 39.9350476,0.711155779 39.9314286,0.69443282 C39.9295238,0.685736881 39.9269524,0.677327622 39.9248571,0.668727243 C39.9202857,0.650762007 39.915619,0.632892331 39.9098095,0.615404893 C39.9071429,0.607377873 39.9040952,0.599541972 39.9010476,0.591514952 C39.8946667,0.574027515 39.8881905,0.556826757 39.8806667,0.539912678 C39.8770476,0.531694538 39.8728571,0.523667518 39.8689524,0.515544938 C39.8612381,0.499682017 39.8532381,0.484010215 39.8445714,0.468625093 C39.8395238,0.459833594 39.8341905,0.451328775 39.8288571,0.442728396 C39.8200952,0.42868111 39.8111429,0.414920504 39.8015238,0.401446577 C39.7952381,0.392559519 39.7885714,0.38386358 39.782,0.375263201 C39.7722857,0.362649312 39.7621905,0.350322102 39.7517143,0.338377132 C39.7478095,0.333790263 39.7442857,0.328821155 39.7401905,0.324329846 C39.7366667,0.320411896 39.7325714,0.317067304 39.7289524,0.313244913 C39.7181905,0.301873301 39.7069524,0.290979488 39.6955238,0.280276794 C39.6873333,0.272536453 39.6789524,0.264796112 39.6704762,0.25734245 C39.6582857,0.246926435 39.6458095,0.23708378 39.6330476,0.227336683 C39.6245714,0.220934179 39.6162857,0.214340555 39.607619,0.20832029 C39.5933333,0.198286515 39.5784762,0.189017217 39.5634286,0.179939039 C39.5557143,0.175352171 39.5482857,0.170287503 39.5404762,0.165987314 C39.5230476,0.156240217 39.5051429,0.147448719 39.4870476,0.13903946 C39.4810476,0.136268226 39.4753333,0.133019194 39.4693333,0.130439081 C39.448381,0.121265343 39.4268571,0.113333883 39.4051429,0.105975781 C39.4014286,0.104733504 39.3979048,0.103108988 39.3941905,0.101866711 C39.3701905,0.0941263696 39.345619,0.0877238652 39.3207619,0.0822769586 C39.3189524,0.0818947195 39.3171429,0.0812258011 39.3153333,0.0808435621 C39.2899048,0.0754922152 39.264,0.0713831452 39.2378095,0.0685163523 C39.2060952,0.0649806409 39.178381,0.0634516847 39.1501905,0.0634516847 L10.3506667,0.0634516847 C10.3224762,0.0634516847 10.2946667,0.0649806409 10.2673333,0.0678474339 C10.2368571,0.0713831452 10.2110476,0.0754922152 10.185619,0.0808435621 C10.1838095,0.0812258011 10.182,0.0817991597 10.1800952,0.0822769586 C10.1551429,0.0877238652 10.1306667,0.0941263696 10.1066667,0.101866711 C10.1029524,0.103013428 10.0993333,0.104637944 10.095619,0.105975781 C10.0739048,0.113333883 10.0522857,0.121265343 10.0314286,0.130439081 C10.0253333,0.133114754 10.019619,0.136363786 10.013619,0.139135019 C9.99552381,0.147544279 9.97752381,0.156335777 9.96019048,0.166082873 C9.95238095,0.170478623 9.94495238,0.175352171 9.9372381,0.180034599 C9.92228571,0.189112777 9.90733333,0.198382074 9.89304762,0.20841585 C9.88438095,0.214531675 9.87609524,0.221029739 9.86761905,0.227432243 C9.85495238,0.237179339 9.84238095,0.246926435 9.83019048,0.25743801 C9.82161905,0.264796112 9.81342857,0.272536453 9.80514286,0.280372354 C9.79371429,0.291075047 9.78257143,0.301968861 9.77171429,0.313340473 C9.76809524,0.317162863 9.764,0.320507455 9.76047619,0.324425406 C9.75628571,0.328916715 9.75285714,0.333981382 9.74895238,0.338472691 C9.73847619,0.350417662 9.72838095,0.362744872 9.71866667,0.375358761 C9.71190476,0.3840547 9.70542857,0.392655079 9.69914286,0.401542137 C9.68952381,0.415016064 9.68057143,0.42887223 9.67190476,0.442823956 C9.66657143,0.451424335 9.6612381,0.459929154 9.65619048,0.468720652 C9.64752381,0.484010215 9.63952381,0.499682017 9.63190476,0.515449378 C9.628,0.523571958 9.62380952,0.531694538 9.62019048,0.539912678 C9.6127619,0.556731197 9.60619048,0.573931955 9.59980952,0.591323832 C9.59695238,0.599350853 9.59371429,0.607186753 9.59104762,0.615309334 C9.58533333,0.632796771 9.58057143,0.650666447 9.576,0.668631683 C9.57390476,0.677232062 9.57133333,0.685641321 9.56942857,0.69433726 C9.56580952,0.711155779 9.5632381,0.728165417 9.56057143,0.745270615 C9.55895238,0.75559107 9.55704762,0.765720405 9.55590476,0.77613642 C9.55419048,0.791330423 9.55352381,0.806811105 9.55266667,0.822291787 C9.552,0.834714556 9.55085714,0.847041766 9.5507619,0.859464536 C9.5507619,0.86185353 9.55047619,0.864051405 9.55047619,0.866344839 C9.55047619,0.880296565 9.55190476,0.893770492 9.55247619,0.907435538 C9.55304762,0.917278194 9.55266667,0.92702529 9.55352381,0.936867946 L9.55447619,0.948143999 C9.55447619,0.948430678 9.8547619,4.35972321 9.8547619,4.35972321 C7.12419048,4.52676168 4.63019048,6.07291869 2.78742857,8.75614136 C1.02190476,11.3270813 0.0495238095,14.7014878 0.0495238095,18.2579356 C0.0495238095,21.8142878 1.02180952,25.1886943 2.78733333,27.7598254 C4.74095238,30.6046396 7.42695238,32.171342 10.3504762,32.171342 L12.3428571,32.171342 C12.9992381,35.4636626 16.0271429,38.0327869 19.4170476,38.0327869 L30.083619,38.0327869 C33.7222857,38.0327869 36.9430476,35.0739698 37.2631429,31.4371563 L39.9460952,0.948526238 C39.9462857,0.948143999 39.9472381,0.936963506 39.9472381,0.936963506 Z M35.6695238,31.2959189 C35.4204762,34.1254436 32.9146667,36.4273828 30.0838095,36.4273828 L19.4172381,36.4273828 C16.5874286,36.4273828 14.0817143,34.1262081 13.8318095,31.297639 C13.7952381,30.883483 13.4494286,30.5659379 13.0349524,30.5659379 L10.3507619,30.5659379 C7.96933333,30.5659379 5.7512381,29.2458753 4.10504762,26.8489497 C2.52171429,24.5431881 1.64971429,21.4922514 1.64971429,18.2580311 C1.64971429,15.0238109 2.52180952,11.9727786 4.1052381,9.66711261 C5.75142857,7.270187 7.96952381,5.95012439 10.3509524,5.95012439 L10.7275238,5.95012439 C10.9519048,5.95012439 11.166,5.85552022 11.3175238,5.68943735 C11.4691429,5.52345004 11.5441905,5.30117802 11.524381,5.07680369 L11.2244762,1.66914243 L38.2766667,1.66914243 L35.6695238,31.2959189 Z" id="Shape"></path>
                                <path d="M10.3508571,7.5554329 C8.51142857,7.5554329 6.7612381,8.62885575 5.42266667,10.5780839 C4.02142857,12.6183804 3.24971429,15.3459428 3.24971429,18.2580311 C3.24971429,21.1703106 4.02133333,23.8977774 5.42257143,25.938074 C6.76104762,27.887111 8.51114286,28.9606294 10.3506667,28.9606294 L12.752381,28.9606294 C12.9767619,28.9606294 13.1908571,28.8660252 13.342381,28.6999423 C13.494,28.533955 13.5690476,28.311683 13.5492381,28.0873087 L11.8068571,8.28751627 C11.770381,7.87307356 11.4245714,7.5554329 11.01,7.5554329 L10.3508571,7.5554329 Z M11.8785714,27.3551297 L10.3506667,27.3551297 C9.05333333,27.3551297 7.77095238,26.5283467 6.74,25.0271027 C5.52095238,23.2520801 4.84952381,20.848083 4.84952381,18.2579356 C4.84952381,15.6679792 5.52085714,13.2639822 6.74009524,11.4887684 C7.75161905,10.0158102 9.00514286,9.19208502 10.2774286,9.16160145 L11.8785714,27.3551297 Z" id="Shape"></path>
                                <path d="M15.4252381,31.1547772 C15.6001905,33.142707 17.4281905,34.8220743 19.4172381,34.8220743 L30.0838095,34.8220743 C32.0726667,34.8220743 33.9008571,33.1426114 34.0758095,31.1547772 L34.7937143,22.9962666 C34.8325714,22.5546849 34.5073333,22.1650877 34.0671429,22.1260038 C33.6299048,22.0876843 33.2387619,22.413352 33.1999048,22.8550292 L32.482,31.0135398 C32.3805714,32.1666595 31.2374286,33.2166702 30.0838095,33.2166702 L19.4172381,33.2166702 C18.263619,33.2166702 17.1204762,32.166564 17.0190476,31.0135398 L15.3835238,12.4275476 C15.9539048,12.5085823 16.336381,12.6683582 16.7589524,12.8449526 C17.428381,13.1247516 18.1874286,13.4417234 19.628,13.4417234 C21.0685714,13.4417234 21.8275238,13.1247516 22.4969524,12.8449526 C23.1049524,12.5908592 23.6301905,12.371454 24.7510476,12.371454 C25.8718095,12.371454 26.3967619,12.5908592 27.0046667,12.8448571 C27.6740952,13.1246561 28.4330476,13.4417234 29.8735238,13.4417234 C31.314,13.4417234 32.0728571,13.1247516 32.742381,12.8449526 C33.1648571,12.6683582 33.5472381,12.5085823 34.1175238,12.4275476 L33.4813333,19.6566439 C33.4424762,20.0982256 33.7677143,20.4878227 34.2079048,20.5267155 C34.6442857,20.5656084 35.0362857,20.2393673 35.0750476,19.7977856 L35.7929524,11.6392751 C35.8127619,11.4149963 35.737619,11.1926287 35.5860952,11.0265458 C35.4346667,10.8605585 35.2204762,10.7659544 34.9960952,10.7659544 C33.5554286,10.7659544 32.7966667,11.0829261 32.1272381,11.3628207 C31.5193333,11.6169141 30.994381,11.8362237 29.873619,11.8362237 C28.7528571,11.8362237 28.2279048,11.6168185 27.62,11.3628207 C26.9505714,11.0830217 26.191619,10.7659544 24.7511429,10.7659544 C23.310381,10.7659544 22.551619,11.0829261 21.8821905,11.3627251 C21.2741905,11.6168185 20.7489524,11.8362237 19.6280952,11.8362237 C18.5071429,11.8362237 17.982,11.6168185 17.3739048,11.3627251 C16.7044762,11.0829261 15.9454286,10.7659544 14.5049524,10.7659544 C14.2805714,10.7659544 14.0664762,10.8605585 13.9149524,11.0265458 C13.7633333,11.1926287 13.6882857,11.4149007 13.7080952,11.6392751 L15.4252381,31.1547772 Z" id="Shape"></path>
                            </g>
                        </g>
                    </g>
                </g>
            </g>
        </g>
    </g>
</svg>