<?xml version="1.0" encoding="UTF-8"?>
<svg width="48px" height="40px" viewBox="0 0 48 40" version="1.1" xmlns="http://www.w3.org/2000/svg" xmlns:xlink="http://www.w3.org/1999/xlink">
    <!-- Generator: Sketch 51.3 (57544) - http://www.bohemiancoding.com/sketch -->
    <title>004-cappuccino</title>
    <desc>Created with Sketch.</desc>
    <defs></defs>
    <g id="Page-1" stroke="none" stroke-width="1" fill="none" fill-rule="evenodd">
        <g id="Desktop-HD" transform="translate(-1196.000000, -371.000000)" fill-rule="nonzero">
            <g id="Kaffe-type" transform="translate(0.000000, 360.000000)">
                <g id="Typer" transform="translate(446.000000, 7.000000)">
                    <g id="Cappuccino" transform="translate(731.000000, 4.000000)">
                        <g id="004-cappuccino" transform="translate(19.000000, 0.000000)">
                            <path d="M46.21275,35.4884273 L45.6122813,37.58803 C45.3804375,38.3970968 44.5021875,39.0592222 43.6595625,39.0592222 L6.893625,39.0592222 C6.05109375,39.0592222 5.17275,38.3970968 4.94090625,37.58803 L4.3404375,35.4884273 L46.21275,35.4884273 Z" id="Shape" fill="#E8D6BD"></path>
                            <path d="M41.6170313,8.31487251 L41.6170313,16.4766226 C41.6170313,25.4922993 34.3005938,32.8001229 25.2765937,32.8001229 C20.60325,32.8001229 16.3894688,30.8402502 13.4114063,27.6990408 L8.93615625,27.6990408 C6.75365625,27.6990408 4.7019375,26.8501716 3.1588125,25.3086461 C1.6156875,23.7671205 0.7659375,21.7175284 0.7659375,19.5372907 C0.7659375,17.3570529 1.61559375,15.3074608 3.1588125,13.7659352 C4.70203125,12.2244097 6.75375,11.3755405 8.93615625,11.3755405 L8.93615625,8.31487251 L12,8.31487251 L12,16.4766226 C12,23.7895036 17.956125,29.7394549 25.2765937,29.7394549 C32.5970625,29.7394549 38.5531875,23.7895036 38.5531875,16.4766226 L38.5531875,8.31487251 L41.6170313,8.31487251 Z M8.93615625,24.6383728 L11.1226875,24.6383728 C9.73171875,22.2377699 8.93615625,19.449538 8.93615625,16.4766226 L8.93615625,14.4362085 C7.57171875,14.4362085 6.2900625,14.9667518 5.32490625,15.9297838 C4.36078125,16.893846 3.82978125,18.1742674 3.82978125,19.5372907 C3.82978125,20.9003139 4.360875,22.1806417 5.3259375,23.1447975 C6.2900625,24.1079232 7.57171875,24.6383728 8.93615625,24.6383728 Z" id="Shape" fill="#C8FEFF"></path>
                            <path d="M31.9149375,17.9049219 C35.2340625,17.9049219 35.2340625,16.4766226 38.5532812,16.4766226 C38.5532812,23.7895036 32.5971562,29.7394549 25.2766875,29.7394549 C17.9562188,29.7394549 12,23.7895972 12,16.4766226 C15.319125,16.4766226 15.319125,17.9049219 18.6383437,17.9049219 C21.9575625,17.9049219 21.9574687,16.4766226 25.2756562,16.4766226 C28.5957187,16.4766226 28.5957187,17.9049219 31.9149375,17.9049219 Z" id="Shape" fill="#BD9F79"></path>
                            <path d="M38.5531875,8.31487251 L38.5531875,16.4766226 C35.2340625,16.4766226 35.2340625,17.9049219 31.9148437,17.9049219 C28.595625,17.9049219 28.5957187,16.4766226 25.2755625,16.4766226 C21.9574687,16.4766226 21.9574687,17.9049219 18.63825,17.9049219 C15.3190312,17.9049219 15.319125,16.4766226 12,16.4766226 L12,8.31487251 L38.5531875,8.31487251 Z" id="Shape" fill="#F9EBDB"></path>
                            <path d="M38.5531875,8.31487251 L12,8.31487251 C12,5.54808707 14.2457812,3.30453997 17.0155312,3.30453997 C18.325875,3.30453997 19.517625,3.80651911 20.41125,4.62776075 C20.9565937,2.4506135 22.9276875,0.836600695 25.2765937,0.836600695 C27.6255,0.836600695 29.5965937,2.4506135 30.1419375,4.62776075 C31.0355625,3.80651911 32.2274062,3.30453997 33.5376562,3.30453997 C36.3074062,3.30463362 38.5531875,5.54808707 38.5531875,8.31487251 Z" id="Shape" fill="#FFFFFF"></path>
                            <g id="Group" fill="#700D00">
                                <path d="M47.2340625,34.7232837 L3.319125,34.7232837 C2.896125,34.7232837 2.5531875,35.0657721 2.5531875,35.4884273 C2.5531875,35.9110825 2.896125,36.2535709 3.319125,36.2535709 L3.76265625,36.2535709 L4.2043125,37.7979996 C4.52925,38.9342894 5.7105,39.8243658 6.89353125,39.8243658 L43.6594688,39.8243658 C44.8425,39.8243658 46.02375,38.9341957 46.3486875,37.7979996 L46.7904375,36.2535709 L47.2339688,36.2535709 C47.6569688,36.2535709 47.9999063,35.9110825 47.9999063,35.4884273 C48,35.0657721 47.6570625,34.7232837 47.2340625,34.7232837 Z M44.8757813,37.3774984 C44.738625,37.8571882 44.158875,38.293985 43.6595625,38.293985 L6.893625,38.293985 C6.39421875,38.293985 5.8145625,37.8571882 5.67740625,37.3774984 L5.3559375,36.2535709 L45.1973438,36.2535709 L44.8757813,37.3774984 Z" id="Shape"></path>
                                <path d="M8.93615625,25.40361 L11.1225938,25.40361 C11.3964375,25.40361 11.6492813,25.2576053 11.7861563,25.0207573 C11.9230313,24.7839093 11.9228438,24.4919934 11.7857812,24.2553327 C10.4225625,21.9013689 9.70209375,19.2115661 9.70209375,16.47681 L9.70209375,14.4363958 C9.70209375,14.0137406 9.35915625,13.6712522 8.93615625,13.6712522 C7.36753125,13.6712522 5.89284375,14.2814004 4.783875,15.389407 C3.6748125,16.4973199 3.0639375,17.9705725 3.0639375,19.537478 C3.0639375,21.1042897 3.67471875,22.5775423 4.78396875,23.6855489 C5.89303125,24.7934619 7.36771875,25.40361 8.93615625,25.40361 Z M5.8670625,16.4712844 C6.50325,15.8357564 7.30228125,15.4218109 8.170125,15.2682202 L8.170125,16.4766226 C8.170125,19.0442085 8.74884375,21.5763936 9.85246875,23.8732292 L8.93615625,23.8732292 C7.77684375,23.8732292 6.68690625,23.4221972 5.8670625,22.6033905 C5.0473125,21.7843966 4.5958125,20.6954952 4.5958125,19.5372907 C4.59571875,18.3791798 5.047125,17.2902784 5.8670625,16.4712844 Z" id="Shape"></path>
                                <path d="M8.93615625,28.4641844 L13.0858125,28.4641844 C16.3261875,31.7565495 20.6420625,33.5652665 25.2765,33.5652665 C34.7089687,33.5652665 42.382875,25.8992208 42.382875,16.4766226 L42.382875,8.31487251 C42.382875,7.8922173 42.0399375,7.54972892 41.6169375,7.54972892 L39.2668125,7.54972892 C38.8907812,4.72562795 36.46575,2.53930273 33.5375625,2.53930273 C32.4589687,2.53930273 31.4157187,2.83739967 30.51225,3.39285458 C29.5765312,1.39336675 27.5559375,0.0717380648 25.2765937,0.0717380648 C22.99725,0.0717380648 20.9766562,1.39336675 20.0409375,3.39285458 C19.137375,2.83749332 18.0942187,2.53930273 17.015625,2.53930273 C14.0874375,2.53930273 11.6624062,4.72562795 11.286375,7.54972892 L8.9360625,7.54972892 C8.5130625,7.54972892 8.170125,7.8922173 8.170125,8.31487251 L8.170125,10.6424262 C6.072,10.8191491 4.123125,11.7204639 2.61721875,13.2249029 C0.9294375,14.9110284 0,17.1528897 0,19.5372907 C0,21.9216916 0.92953125,24.1634593 2.6173125,25.8495848 C4.30528125,27.5357103 6.549375,28.4641844 8.93615625,28.4641844 Z M37.7871562,15.7391066 C36.4502812,15.8360373 35.6489062,16.178994 34.930875,16.4880483 C34.1181562,16.8377479 33.4163438,17.1397783 31.9146563,17.1397783 C30.4129687,17.1397783 29.7111562,16.8377479 28.8984375,16.4880483 C28.0525312,16.1240198 27.09375,15.7114791 25.2762187,15.7114791 C23.4587813,15.7114791 22.5,16.1240198 21.6540938,16.4880483 C20.8414687,16.8377479 20.1396563,17.1397783 18.6380625,17.1397783 C17.1364688,17.1397783 16.43475,16.8377479 15.622125,16.4880483 C14.9041875,16.178994 14.1028125,15.8360373 12.7660313,15.7391066 L12.7660313,9.0800161 L37.7873437,9.0800161 L37.7871562,15.7391066 Z M17.0155312,4.06968356 C18.0842813,4.06968356 19.1059687,4.46798903 19.8923438,5.19117615 C20.0912813,5.37417377 20.37225,5.43879422 20.6307187,5.36124968 C20.88975,5.28379879 21.0885938,5.07579587 21.154125,4.81394256 C21.6274687,2.9229047 23.3225625,1.60221255 25.2764063,1.60221255 C27.23025,1.60221255 28.9253438,2.9229047 29.3986875,4.81394256 C29.4642188,5.07579587 29.6631563,5.28389245 29.9220938,5.36124968 C30.1810312,5.43860691 30.461625,5.37398646 30.6604687,5.19117615 C31.4468437,4.46798903 32.4685312,4.06968356 33.5372812,4.06968356 C35.6189062,4.06968356 37.3545937,5.57309237 37.7164687,7.54972892 L12.8361563,7.54972892 C13.198125,5.57309237 14.9338125,4.06968356 17.0155312,4.06968356 Z M3.7005,14.3070613 C5.098875,12.9100421 6.958125,12.1406841 8.9360625,12.1406841 C9.3590625,12.1406841 9.702,11.7981957 9.702,11.3755405 L9.702,9.0800161 L11.233875,9.0800161 L11.233875,16.4766226 C11.233875,24.2115969 17.5333125,30.5045985 25.2764063,30.5045985 C28.4719688,30.5045985 31.4851875,29.4551249 33.990375,27.4694041 C34.3217813,27.2068015 34.3771875,26.725426 34.1143125,26.3943633 C33.8513437,26.0632069 33.3694687,26.0080454 33.0381563,26.2706479 C30.806625,28.0392815 28.12275,28.9742177 25.2764063,28.9742177 C18.6464063,28.9742177 13.2054375,23.79531 12.792,17.2744511 C13.7781563,17.3613609 14.361375,17.6116949 15.01575,17.8933089 C15.8615625,18.2573375 16.8203437,18.6698782 18.6377812,18.6698782 C20.4552188,18.6698782 21.414,18.2573375 22.2599063,17.8933089 C23.0725313,17.5436093 23.7743438,17.2415789 25.2759375,17.2415789 C26.777625,17.2415789 27.4794375,17.5436093 28.2921563,17.8933089 C29.1380625,18.2573375 30.0968438,18.6698782 31.914375,18.6698782 C33.7319063,18.6698782 34.6906875,18.2573375 35.5365938,17.8933089 C36.1906875,17.6117885 36.7739062,17.3615482 37.7593125,17.2745447 C37.6005,19.8201222 36.6841875,22.2108915 35.0804063,24.2302338 C34.8175313,24.5612029 34.8730313,25.0424847 35.2043438,25.3051809 C35.53575,25.5679707 36.0174375,25.512341 36.2805,25.1813719 C38.2680938,22.6788747 39.3188437,19.6688729 39.3188437,16.476529 L39.3188437,9.07992244 L40.8507187,9.07992244 L40.8507187,16.476529 C40.8507187,25.0554088 33.8640937,32.0348857 25.2762188,32.0348857 C20.9559375,32.0348857 16.9395,30.3082085 13.966875,27.1728056 C13.822125,27.0201515 13.6212188,26.9338035 13.41075,26.9338035 L8.93615625,26.9338035 C6.95859375,26.9338035 5.09915625,26.1644456 3.70059375,24.7673327 C2.302125,23.3703135 1.531875,21.512897 1.531875,19.5372907 C1.531875,17.5615906 2.30203125,15.7041741 3.7005,14.3070613 Z" id="Shape"></path>
                            </g>
                        </g>
                    </g>
                </g>
            </g>
        </g>
    </g>
</svg>