<?xml version="1.0" encoding="UTF-8"?>
<svg width="48px" height="35px" viewBox="0 0 48 35" version="1.1" xmlns="http://www.w3.org/2000/svg" xmlns:xlink="http://www.w3.org/1999/xlink">
    <!-- Generator: Sketch 51.3 (57544) - http://www.bohemiancoding.com/sketch -->
    <title>002-espresso</title>
    <desc>Created with Sketch.</desc>
    <defs></defs>
    <g id="Page-1" stroke="none" stroke-width="1" fill="none" fill-rule="evenodd">
        <g id="Desktop-HD" transform="translate(-597.000000, -375.000000)" fill-rule="nonzero">
            <g id="Kaffe-type" transform="translate(0.000000, 360.000000)">
                <g id="Typer" transform="translate(446.000000, 7.000000)">
                    <g id="Espresso" transform="translate(142.000000, 8.000000)">
                        <g id="002-espresso" transform="translate(9.000000, 0.000000)">
                            <path d="M46.1123437,29.9399377 L45.478125,32.1540779 C45.23325,33.0072312 44.3055937,33.7054442 43.4157187,33.7054442 L4.58428125,33.7054442 C3.69440625,33.7054442 2.76675,33.0072312 2.521875,32.1540779 L1.88765625,29.9399377 L46.1123437,29.9399377 Z" id="Shape" fill="#E8D6BD"></path>
                            <path d="M34.3129688,7.37186494 C33.8545313,9.18785455 33.39825,10.9544727 32.7920625,12.7930909 C31.6831875,16.149787 30.54525,19.5968104 30.1126875,23.4849039 L17.8873125,23.4849039 C17.45475,19.5968104 16.3168125,16.149787 15.2079375,12.7930909 C14.60175,10.9544727 14.1454687,9.18794805 13.6870312,7.37186494 C16.1269687,8.30141299 16.163625,8.85328831 18.7761562,8.85328831 C21.3875625,8.85328831 21.3875625,7.34708571 23.9989687,7.34708571 C26.6115,7.34708571 26.6115,8.85328831 29.2239375,8.85328831 C31.836375,8.85328831 31.8730313,8.30141299 34.3129688,7.37186494 Z" id="Shape" fill="#8E4238"></path>
                            <path d="M9.4381875,0.891958442 L38.5618125,0.891958442 C38.5618125,10.3777247 33.1685625,17.2266078 33.1685625,26.712374 L14.8314375,26.712374 C14.8314375,24.8285922 14.617875,23.0501922 14.278125,21.3331325 L9.643125,21.3331325 C7.338,21.3331325 5.1710625,20.4379948 3.54121875,18.8123844 C1.911375,17.186774 1.01390625,15.0253714 1.01390625,12.7263273 C1.01390625,10.4272831 1.911375,8.26588052 3.54121875,6.64027013 C5.1710625,5.01465974 7.33809375,4.11952208 9.643125,4.11952208 C9.512625,3.07383896 9.4381875,2.00122597 9.4381875,0.891958442 Z M32.7920625,12.7929974 C33.39825,10.9543792 33.8545313,9.18785455 34.3129688,7.37177143 C31.8730313,8.30131948 31.836375,8.85319481 29.2238438,8.85319481 C26.6113125,8.85319481 26.6113125,7.34699221 23.998875,7.34699221 C21.3874688,7.34699221 21.3874688,8.85319481 18.7760625,8.85319481 C16.1635313,8.85319481 16.126875,8.30131948 13.6869375,7.37177143 C14.145375,9.18776104 14.6016563,10.9543792 15.2078438,12.7929974 C16.3167187,16.1496935 17.4546563,19.5967169 17.8872187,23.4848104 L30.1126875,23.4848104 C30.54525,19.5967169 31.6832813,16.1496935 32.7920625,12.7929974 Z M9.643125,18.1055688 L13.4885625,18.1055688 C12.4605937,14.4896727 11.0788125,11.0479792 10.2234375,7.34708571 L9.643125,7.34708571 C8.202,7.34708571 6.84834375,7.90653506 5.829,8.92210909 C4.81078125,9.93880519 4.249875,11.2889455 4.249875,12.7263273 C4.249875,14.1637091 4.81078125,15.5138494 5.829,16.5305455 C6.84834375,17.5461195 8.20209375,18.1055688 9.643125,18.1055688 Z" id="Shape" fill="#C8FEFF"></path>
                            <g id="Group" fill="#700D00">
                                <path d="M9.6429375,22.14 L13.6060313,22.14 C13.8859687,23.723626 14.022375,25.2255273 14.022375,26.712374 C14.022375,27.1581195 14.3844375,27.5192416 14.8313437,27.5192416 L33.1684687,27.5192416 C33.615375,27.5192416 33.9774375,27.1581195 33.9774375,26.712374 C33.9774375,22.0986701 35.267625,18.1914078 36.6334687,14.054587 C37.9793437,9.97891948 39.3707812,5.76448831 39.3707812,0.891958442 C39.3707812,0.446212987 39.0087187,0.0850909091 38.5618125,0.0850909091 L34.0722187,0.0850909091 C33.6253125,0.0850909091 33.26325,0.446212987 33.26325,0.891958442 C33.26325,1.3377039 33.6253125,1.69882597 34.0722187,1.69882597 L37.739625,1.69882597 C37.6006875,5.9659013 36.3822187,9.65632208 35.0967187,13.5497455 C33.8258437,17.3987532 32.5141875,21.3713766 32.3721562,25.905413 L15.6279375,25.905413 C15.5805,24.3726545 15.3969375,22.8176416 15.07125,21.1763221 C14.99625,20.7984623 14.6639063,20.5261714 14.2776563,20.5261714 L9.6429375,20.5261714 C7.55409375,20.5261714 5.5903125,19.7149091 4.11309375,18.2416208 C2.6360625,16.768426 1.8226875,14.8097455 1.8226875,12.7262338 C1.82259375,10.6428156 2.63596875,8.68404156 4.113,7.21084675 C5.59003125,5.73755844 7.55390625,4.9262961 9.6429375,4.9262961 C9.874875,4.9262961 10.0956562,4.82699221 10.2492187,4.65363117 C10.4027813,4.48017662 10.4743125,4.2494026 10.445625,4.01984416 C10.3469062,3.22718961 10.2856875,2.46127792 10.2602812,1.69873247 L30.8360625,1.69873247 C31.2829687,1.69873247 31.6450312,1.33761039 31.6450312,0.891864935 C31.6450312,0.446119481 31.2829687,0.0849974026 30.8360625,0.0849974026 L9.4381875,0.0849974026 C8.99128125,0.0849974026 8.62921875,0.446119481 8.62921875,0.891864935 C8.62921875,1.71032727 8.667375,2.52261818 8.74546875,3.35426494 C6.56325,3.5582026 4.53825,4.50448831 2.968875,6.06969351 C1.1863125,7.84790649 0.20465625,10.2118442 0.20475,12.7263273 C0.20475,15.2409039 1.1865,17.6048416 2.96915625,19.3828675 C4.75190625,21.1608 7.12190625,22.14 9.6429375,22.14 Z" id="Shape"></path>
                                <path d="M11.0117813,7.16577662 C10.927125,6.7996987 10.6003125,6.54012468 10.2234375,6.54012468 L9.64284375,6.54012468 C7.98628125,6.54012468 6.42871875,7.18363636 5.25721875,8.352 C4.08590625,9.52036364 3.4408125,11.0738805 3.4408125,12.7263273 C3.4408125,14.378774 4.086,15.9322909 5.2575,17.1006545 C6.42909375,18.2691117 7.9865625,18.9125299 9.643125,18.9125299 L13.4890313,18.9125299 C13.742625,18.9125299 13.9814063,18.7938701 14.1344063,18.5921766 C14.2872188,18.3903896 14.3364375,18.1286649 14.26725,17.8854545 C13.8495,16.4167481 13.36875,14.9600104 12.90375,13.5512416 C12.220875,11.4825039 11.5149375,9.34354286 11.0117813,7.16577662 Z M9.6429375,17.2987013 C8.41846875,17.2987013 7.2673125,16.8230338 6.40134375,15.9595013 C5.53546875,15.0960623 5.05865625,13.9478026 5.05865625,12.7263273 C5.05865625,11.5049455 5.535375,10.3567792 6.40125,9.49315325 C7.25334375,8.64308571 8.38209375,8.16891429 9.58509375,8.15423377 C10.0881563,10.1821091 10.7372812,12.1483636 11.3669062,14.0557091 C11.7170625,15.1167273 12.0763125,16.2052364 12.4082812,17.2986078 L9.6429375,17.2986078 L9.6429375,17.2987013 Z" id="Shape"></path>
                                <path d="M17.0828437,23.5736416 C17.1282187,23.9824519 17.474625,24.2917714 17.8868437,24.2917714 L30.11325,24.2917714 C30.5254687,24.2917714 30.871875,23.9824519 30.91725,23.5736416 C31.3397812,19.7688623 32.4684375,16.3507325 33.5600625,13.0450909 C34.1694375,11.1992727 34.6352812,9.40151688 35.0979375,7.56916364 C35.1717187,7.27714286 35.076375,6.96875844 34.8507187,6.76884156 C34.6250625,6.56883117 34.3064062,6.51095065 34.0247812,6.61848312 C33.2608125,6.90956883 32.71725,7.16783377 32.2804687,7.37532468 C31.3103437,7.83621818 30.8675625,8.0467013 29.22375,8.0467013 C28.1346562,8.0467013 27.6411562,7.76216104 27.0164062,7.40197403 C26.3161875,6.99821299 25.5224062,6.5404987 23.9993437,6.5404987 C22.4762812,6.5404987 21.6825937,6.99821299 20.9824687,7.40197403 C20.3578125,7.76225455 19.8644062,8.0467013 18.7755937,8.0467013 C17.1321562,8.0467013 16.689375,7.83640519 15.7193437,7.37532468 C15.2825625,7.16783377 14.7390937,6.90956883 13.975125,6.61848312 C13.6934062,6.51104416 13.37475,6.56892468 13.1491875,6.76884156 C12.9235312,6.96875844 12.8281875,7.27742338 12.9019687,7.56916364 C13.382625,9.4723013 13.8301875,11.1981506 14.4402187,13.0456519 C15.53175,16.351387 16.6604062,19.7697974 17.0828437,23.5736416 Z M15.0233437,8.83196883 C16.072875,9.33073247 16.7663438,9.66015584 18.7755,9.66015584 C20.2984687,9.66015584 21.0921563,9.20253506 21.7922812,8.79868052 C22.4169375,8.4384 22.9103437,8.15395325 23.9993438,8.15395325 C25.0884375,8.15395325 25.5818437,8.43849351 26.2065937,8.79868052 C26.9068125,9.20244156 27.7005937,9.66015584 29.2238438,9.66015584 C31.2332812,9.66015584 31.9268437,9.33063896 32.9764688,8.83196883 C33.0242813,8.80915325 33.0729375,8.78605714 33.1224375,8.76258701 C32.7890625,10.0368935 32.4451875,11.2628571 32.0234063,12.5402494 C30.9737812,15.7191896 29.8905938,18.9993974 29.3972812,22.6778494 L18.603,22.6778494 C18.1099688,19.0003325 17.0266875,15.7195636 15.976875,12.5402494 C15.555375,11.2636052 15.211125,10.037361 14.87775,8.76268052 C14.9271562,8.78615065 14.9755312,8.80924675 15.0233437,8.83196883 Z" id="Shape"></path>
                                <path d="M47.1910312,29.1330701 L0.80896875,29.1330701 C0.3620625,29.1330701 0,29.4941922 0,29.9399377 C0,30.3856831 0.3620625,30.7468052 0.80896875,30.7468052 L1.27734375,30.7468052 L1.7439375,32.3754078 C2.08715625,33.5736 3.3346875,34.5122182 4.58428125,34.5122182 L43.4157187,34.5122182 C44.6652187,34.5122182 45.91275,33.5735065 46.2561562,32.3754078 L46.7226562,30.7468052 L47.1910312,30.7468052 C47.6379375,30.7468052 48,30.3856831 48,29.9399377 C48,29.4941922 47.6379375,29.1330701 47.1910312,29.1330701 Z M44.700375,31.9320935 C44.5554375,32.4378701 43.9430625,32.8985766 43.4157187,32.8985766 L4.58428125,32.8985766 C4.05684375,32.8985766 3.4445625,32.4378701 3.29971875,31.9320935 L2.96015625,30.7468052 L45.0398438,30.7468052 L44.700375,31.9320935 Z" id="Shape"></path>
                            </g>
                        </g>
                    </g>
                </g>
            </g>
        </g>
    </g>
</svg>