<?xml version="1.0" encoding="UTF-8"?>
<svg width="25px" height="43px" viewBox="0 0 25 43" version="1.1" xmlns="http://www.w3.org/2000/svg" xmlns:xlink="http://www.w3.org/1999/xlink">
    <!-- Generator: Sketch 51.3 (57544) - http://www.bohemiancoding.com/sketch -->
    <title>005-iced-coffee</title>
    <desc>Created with Sketch.</desc>
    <defs></defs>
    <g id="Page-1" stroke="none" stroke-width="1" fill="none" fill-rule="evenodd">
        <g id="Desktop-HD" transform="translate(-1059.000000, -367.000000)" fill-rule="nonzero">
            <g id="Kaffe-type" transform="translate(0.000000, 360.000000)">
                <g id="Typer" transform="translate(446.000000, 7.000000)">
                    <g id="Ice-coffee" transform="translate(613.000000, 0.000000)">
                        <g id="005-iced-coffee">
                            <path d="M24.1338424,3.42429492 L19.7349417,39.5887227 C19.5529275,41.0875918 18.168931,42.3137637 16.6596738,42.3137637 L8.19114343,42.3137637 C6.68188625,42.3137637 5.29788979,41.0875918 5.11587557,39.5887227 L0.716890861,3.42429492 L3.48118978,3.42429492 L7.39802152,35.6275156 C8.12062131,37.2215391 16.730028,37.2215391 17.4527118,35.6275156 L21.3695435,3.42429492 C21.3695435,3.42429492 24.1338424,3.42429492 24.1338424,3.42429492 Z" id="Shape" fill="#C8FEFF"></path>
                            <path d="M21.3695435,3.42429492 L17.4527118,35.6275156 C16.730112,37.2215391 8.12070527,37.2215391 7.39810548,35.6275156 L3.48118978,3.42429492 C3.48118978,3.42429492 21.3695435,3.42429492 21.3695435,3.42429492 Z" id="Shape" fill="#8E4238"></path>
                            <g id="Group" transform="translate(5.121249, 3.275391)" fill="#C67741">
                                <rect id="Rectangle-path" transform="translate(4.538241, 9.115442) rotate(-22.500428) translate(-4.538241, -9.115442) " x="1.10784083" y="5.68383796" width="6.86079946" height="6.86320845"></rect>
                                <rect id="Rectangle-path" transform="translate(9.142776, 16.313258) rotate(-157.499572) translate(-9.142776, -16.313258) " x="5.71237627" y="12.8816536" width="6.86079946" height="6.86320845"></rect>
                                <polygon id="Shape" points="13.6248722 0.0372050781 10.9996026 6.37760547 4.66151167 3.75141406 6.1991456 0.0372050781"></polygon>
                            </g>
                            <polygon id="Shape" fill="#F7CD95" points="18.7461209 3.3125957 11.3203943 3.3125957 12.40803 0.686404297"></polygon>
                            <path d="M24.6472266,2.96918359 C24.5170965,2.82212695 24.330129,2.73797461 24.1336745,2.73797461 L21.3823047,2.73797461 C21.3814651,2.73797461 19.1205598,2.73797461 19.1205598,2.73797461 C19.0857185,2.71529883 19.0486104,2.69505859 19.0087318,2.67859766 L12.670389,0.0522382813 C12.5022274,-0.0173847656 12.3134968,-0.0173847656 12.1453351,0.0522382813 C11.9771734,0.121861328 11.8436852,0.255480469 11.7740865,0.423617188 L10.8158254,2.73797461 L0.717058771,2.73797461 C0.520688268,2.73797461 0.333720713,2.82212695 0.203506669,2.96918359 C0.0732086697,3.11624023 0.0123413698,3.3120918 0.0360166506,3.50701953 L4.4347495,39.6714473 C4.65798557,41.5068418 6.34329616,43 8.19139529,43 L16.6591701,43 C18.5073532,43 20.1925798,41.5069258 20.4157319,39.6715313 L24.8144648,3.50710352 C24.8383919,3.3120918 24.7773567,3.11624023 24.6472266,2.96918359 Z M19.0146926,17.1001426 C19.0125938,17.0992188 19.0107468,17.098127 19.0086479,17.0972871 L14.032893,15.0356387 L14.4038897,14.8819473 C14.7539816,14.7369063 14.9201284,14.335377 14.7751383,13.9853301 L12.7023758,8.97944141 L15.8580725,10.2870781 C15.9439583,10.3226875 16.0328666,10.3394844 16.1203476,10.3394844 C16.3895909,10.3394844 16.6450657,10.1799141 16.7544589,9.91561523 L19.1581716,4.11053125 L20.5945559,4.11053125 L19.0146926,17.1001426 Z M11.7325289,4.11053125 L17.6730934,4.11053125 L15.7493509,8.75629492 L10.678727,6.65525781 L11.7325289,4.11053125 Z M8.17435245,15.9774395 L6.0740528,10.9050352 L11.1446767,8.80399805 L13.2449763,13.8764023 L8.17435245,15.9774395 Z M17.8496505,18.102748 L15.7493509,23.1750684 L10.678727,21.0740313 L12.7790267,16.001627 L17.8496505,18.102748 Z M12.7791106,1.5829375 L15.5665811,2.73797461 L12.3009035,2.73797461 L12.7791106,1.5829375 Z M9.14864902,7.28933984 C9.21824763,7.45756055 9.35181987,7.5910957 9.51989757,7.66071875 L9.91910311,7.82616797 L4.95804037,9.88185352 L4.25609348,4.11053125 L10.2473668,4.11053125 L9.14856507,6.76410156 C9.07905041,6.93223828 9.07905041,7.12111914 9.14864902,7.28933984 Z M19.0538156,39.5057461 C18.9139468,40.6557441 17.8173279,41.6273594 16.6592541,41.6273594 L8.19147925,41.6273594 C7.03332145,41.6273594 5.93678655,40.6557441 5.79691769,39.5057461 L1.4917106,4.11053125 L2.87386006,4.11053125 L5.5724223,26.2971035 C5.61473557,26.6453027 5.91067658,26.9006152 6.25262487,26.9006152 C6.28024603,26.9006152 6.30820301,26.8988516 6.3363279,26.8954922 C6.71244584,26.8497207 6.98026196,26.5075684 6.93459049,26.1313184 L5.28789915,12.5928691 L7.16932838,17.1366758 C7.27872161,17.4009746 7.53419636,17.5605449 7.80343972,17.5605449 C7.89100467,17.5605449 7.97991291,17.543748 8.06571481,17.5081387 L11.2097417,16.205373 L9.14864902,21.182875 C9.07905041,21.3510957 9.07905041,21.5398926 9.14864902,21.7081133 C9.21824763,21.876334 9.35181987,22.0098691 9.51989757,22.0794922 L15.8580725,24.7057676 C15.9439583,24.741377 16.0328666,24.7581738 16.1203476,24.7581738 C16.3895909,24.7581738 16.6450657,24.5986035 16.7544589,24.3343047 L18.708761,19.6144668 L16.7906435,35.3845488 C16.4900849,35.6708516 15.0301932,36.1365449 12.4256605,36.1365449 C9.81298412,36.1365449 8.35191705,35.6680801 8.0603417,35.3878242 L7.26587651,28.8561074 C7.2201211,28.4798574 6.87825676,28.2126191 6.50197091,28.2576348 C6.12585297,28.3034063 5.85803686,28.6455586 5.90370832,29.0218086 L6.71723127,35.7101562 C6.72562676,35.7794434 6.74460056,35.8470508 6.77339709,35.910543 C7.42698596,37.3533105 10.9437726,37.5090176 12.4254926,37.5090176 C13.9070446,37.5090176 17.4235794,37.3533105 18.0770004,35.910627 C18.105713,35.8470508 18.1246868,35.7795273 18.1331662,35.7102402 L21.9768732,4.11053125 L23.3591067,4.11053125 L19.0538156,39.5057461 Z" id="Shape" fill="#700D00"></path>
                        </g>
                    </g>
                </g>
            </g>
        </g>
    </g>
</svg>