<?xml version="1.0" encoding="UTF-8"?>
<svg width="48px" height="36px" viewBox="0 0 48 36" version="1.1" xmlns="http://www.w3.org/2000/svg" xmlns:xlink="http://www.w3.org/1999/xlink">
    <!-- Generator: Sketch 51.3 (57544) - http://www.bohemiancoding.com/sketch -->
    <title>001-latte</title>
    <desc>Created with Sketch.</desc>
    <defs></defs>
    <g id="Page-1" stroke="none" stroke-width="1" fill="none" fill-rule="evenodd">
        <g id="Desktop-HD" transform="translate(-747.000000, -374.000000)" fill-rule="nonzero">
            <g id="Kaffe-type" transform="translate(0.000000, 360.000000)">
                <g id="Typer" transform="translate(446.000000, 7.000000)">
                    <g id="Latte" transform="translate(301.000000, 7.000000)">
                        <g id="001-latte">
                            <path d="M46.21275,31.600875 L45.6122813,33.7026563 C45.3804375,34.5125625 44.5021875,35.175375 43.6595625,35.175375 L6.893625,35.175375 C6.05109375,35.175375 5.17275,34.5125625 4.94090625,33.7026563 L4.3404375,31.600875 L46.21275,31.600875 Z" id="Shape" fill="#E8D6BD"></path>
                            <path d="M41.6170313,4.399125 L41.6170313,12.5693437 C41.6170313,21.594375 34.3005938,28.9097812 25.2765937,28.9097812 C20.60325,28.9097812 16.3894688,26.947875 13.4114063,23.8034062 L8.93615625,23.8034062 C6.75365625,23.8034062 4.7019375,22.9536562 3.1588125,21.4105312 C1.6156875,19.8674062 0.7659375,17.8155937 0.7659375,15.6331875 C0.7659375,13.4507812 1.61559375,11.3989687 3.1588125,9.85584375 C4.70203125,8.31271875 6.75375,7.46296875 8.93615625,7.46296875 L8.93615625,4.399125 L12,4.399125 L12,7.46296875 L12,12.5693437 C12,19.8898125 17.956125,25.8459375 25.2765937,25.8459375 C32.5970625,25.8459375 38.5531875,19.8898125 38.5531875,12.5693437 L38.5531875,7.46296875 L38.5531875,4.399125 L41.6170313,4.399125 Z M8.93615625,20.7395625 L11.1226875,20.7395625 C9.73171875,18.3364687 8.93615625,15.5453437 8.93615625,12.5693437 L8.93615625,10.5268125 C7.57171875,10.5268125 6.2900625,11.0579062 5.32490625,12.0219375 C4.36078125,12.987 3.82978125,14.26875 3.82978125,15.6331875 C3.82978125,16.997625 4.360875,18.2792812 5.3259375,19.2444375 C6.2900625,20.2084687 7.57171875,20.7395625 8.93615625,20.7395625 Z" id="Shape" fill="#C8FEFF"></path>
                            <path d="M38.5531875,7.46296875 L38.5531875,12.5693437 C38.5531875,19.8898125 32.5970625,25.8459375 25.2765937,25.8459375 C17.956125,25.8459375 12,19.8899062 12,12.5693437 L12,7.46296875 C15.319125,7.46296875 15.319125,8.89275 18.6383437,8.89275 C21.9575625,8.89275 21.9574687,7.46296875 25.2756562,7.46296875 C28.5958125,7.46296875 28.5958125,8.89275 31.9149375,8.89275 C35.2340625,8.89275 35.2340625,7.46296875 38.5531875,7.46296875 Z" id="Shape" fill="#BD9F79"></path>
                            <path d="M38.5531875,4.399125 L38.5531875,7.46296875 C35.2340625,7.46296875 35.2340625,8.89275 31.9148437,8.89275 C28.595625,8.89275 28.5957187,7.46296875 25.2755625,7.46296875 C21.9574687,7.46296875 21.9574687,8.89275 18.63825,8.89275 C15.3190312,8.89275 15.319125,7.46296875 12,7.46296875 L12,4.399125 L38.5531875,4.399125 Z" id="Shape" fill="#F9EBDB"></path>
                            <path d="M38.5531875,4.399125 L12,4.399125 C12,2.42503125 13.6003125,0.824625 15.5745,0.824625 C16.5109687,0.824625 17.3627812,1.18509375 18,1.77440625 C18.6373125,1.18509375 19.4890312,0.824625 20.4255,0.824625 C21.3619687,0.824625 22.2137812,1.18509375 22.851,1.77440625 C23.4883125,1.18509375 24.3400312,0.824625 25.2765,0.824625 C26.2129687,0.824625 27.0647812,1.18509375 27.702,1.77440625 C28.3393125,1.18509375 29.1910312,0.824625 30.1275,0.824625 C31.0639688,0.824625 31.9157812,1.18509375 32.553,1.77440625 C33.1903125,1.18509375 34.0420313,0.824625 34.9785,0.824625 C36.952875,0.82471875 38.5531875,2.42503125 38.5531875,4.399125 Z" id="Shape" fill="#FFFFFF"></path>
                            <g id="Group" fill="#700D00">
                                <path d="M47.2340625,30.8349375 L3.319125,30.8349375 C2.896125,30.8349375 2.5531875,31.1777812 2.5531875,31.600875 C2.5531875,32.0239688 2.896125,32.3668125 3.319125,32.3668125 L3.76265625,32.3668125 L4.2043125,33.9128438 C4.52925,35.0503125 5.7105,35.9413125 6.89353125,35.9413125 L43.6594687,35.9413125 C44.8425,35.9413125 46.02375,35.0502188 46.3487812,33.9128438 L46.7905312,32.3668125 L47.2339687,32.3668125 C47.6570625,32.3668125 47.9999062,32.0239688 47.9999062,31.600875 C48,31.1777812 47.6571562,30.8349375 47.2340625,30.8349375 Z M44.875875,33.4918125 C44.738625,33.9719062 44.158875,34.40925 43.6595625,34.40925 L6.893625,34.40925 C6.39421875,34.40925 5.8145625,33.972 5.67740625,33.4918125 L5.3559375,32.3667188 L45.1973438,32.3667188 L44.875875,33.4918125 Z" id="Shape"></path>
                                <path d="M8.93615625,21.5055 L11.1225938,21.5055 C11.3964375,21.5055 11.6492813,21.3593437 11.7861563,21.12225 C11.9230312,20.8851562 11.9228438,20.5929375 11.7857812,20.3560312 C10.4225625,17.999625 9.70209375,15.3070312 9.70209375,12.5694375 L9.70209375,10.5269062 C9.70209375,10.1038125 9.35915625,9.76096875 8.93615625,9.76096875 C7.36753125,9.76096875 5.89284375,10.37175 4.783875,11.4809062 C3.6748125,12.5899687 3.0639375,14.06475 3.0639375,15.6332812 C3.0639375,17.2017187 3.67471875,18.6765 4.78396875,19.7856562 C5.89303125,20.8948125 7.36771875,21.5055 8.93615625,21.5055 Z M5.8670625,12.5639062 C6.50325,11.9277187 7.30228125,11.5133437 8.170125,11.3595937 L8.170125,12.56925 C8.170125,15.1395 8.74884375,17.6743125 9.85246875,19.9735312 L8.93615625,19.9735312 C7.77684375,19.9735312 6.68690625,19.5220312 5.8670625,18.702375 C5.0473125,17.8825312 4.5958125,16.7925 4.5958125,15.6330937 C4.59571875,14.473875 5.047125,13.3838437 5.8670625,12.5639062 Z" id="Shape"></path>
                                <path d="M8.93615625,24.5693438 L13.0858125,24.5693438 C16.3261875,27.865125 20.6420625,29.6757187 25.2765,29.6757187 C34.708875,29.6757187 42.382875,22.0017188 42.382875,12.5693438 L42.382875,4.399125 C42.382875,3.97603125 42.0400312,3.6331875 41.6169375,3.6331875 L39.2499375,3.6331875 C38.8869375,1.60415625 37.1104687,0.0586875 34.9785937,0.0586875 C34.1065312,0.0586875 33.2656875,0.318375 32.5530937,0.7996875 C31.8404062,0.318375 30.9996562,0.0586875 30.1275937,0.0586875 C29.255625,0.0586875 28.4146875,0.318375 27.7020937,0.7996875 C26.9895937,0.318375 26.1486562,0.0586875 25.2765937,0.0586875 C24.4045312,0.0586875 23.5636875,0.318375 22.8510937,0.7996875 C22.1385937,0.318375 21.2976562,0.0586875 20.4255937,0.0586875 C19.5535312,0.0586875 18.7125937,0.318375 18.0000937,0.7996875 C17.2875937,0.318375 16.4466562,0.0586875 15.5745937,0.0586875 C13.4427187,0.0586875 11.6661562,1.6040625 11.30325,3.6331875 L8.9360625,3.6331875 C8.5130625,3.6331875 8.170125,3.97603125 8.170125,4.399125 L8.170125,6.72909375 C6.072,6.906 4.123125,7.80825 2.61721875,9.31425 C0.9294375,11.002125 0,13.2463125 0,15.6331875 C0,18.0200625 0.92953125,20.2641563 2.6173125,21.9520312 C4.30528125,23.6399062 6.549375,24.5693438 8.93615625,24.5693438 Z M37.7870625,6.7246875 C36.4501875,6.82171875 35.6488125,7.16503125 34.9307813,7.47440625 C34.1180625,7.82446875 33.41625,8.1268125 31.9145625,8.1268125 C30.412875,8.1268125 29.7110625,7.82446875 28.8983438,7.47440625 C28.0525313,7.11 27.0936563,6.69703125 25.276125,6.69703125 C23.4586875,6.69703125 22.4999063,7.11 21.6540938,7.47440625 C20.8414688,7.82446875 20.1396563,8.1268125 18.6380625,8.1268125 C17.1364688,8.1268125 16.43475,7.82446875 15.622125,7.47440625 C14.9041875,7.16503125 14.1028125,6.82171875 12.7660313,6.7246875 L12.7660313,5.1650625 L37.7873437,5.1650625 L37.7873437,6.7246875 L37.7870625,6.7246875 Z M15.5744063,1.59065625 C16.282875,1.59065625 16.9595625,1.8556875 17.4799688,2.3368125 C17.7735,2.6083125 18.2263125,2.6083125 18.5199375,2.3368125 C19.04025,1.8556875 19.717125,1.59065625 20.4254063,1.59065625 C21.1336875,1.59065625 21.8105625,1.8556875 22.3309688,2.3368125 C22.6245,2.6083125 23.0773125,2.6083125 23.3709375,2.3368125 C23.89125,1.8556875 24.5679375,1.59065625 25.2764062,1.59065625 C25.9849688,1.59065625 26.6615625,1.8556875 27.181875,2.3368125 C27.4755,2.6083125 27.9283125,2.6083125 28.2219375,2.3368125 C28.7423437,1.8556875 29.419125,1.59065625 30.1274062,1.59065625 C30.8356875,1.59065625 31.5125625,1.8556875 32.032875,2.3368125 C32.3265,2.6083125 32.7793125,2.6083125 33.0729375,2.3368125 C33.5933437,1.8556875 34.2700312,1.59065625 34.9784062,1.59065625 C36.2614687,1.59065625 37.3455,2.455875 37.6799062,3.6331875 L12.8727187,3.6331875 C13.207125,2.455875 14.29125,1.59065625 15.5744063,1.59065625 Z M3.7005,10.397625 C5.098875,8.99915625 6.958125,8.229 8.9360625,8.229 C9.3590625,8.229 9.702,7.88615625 9.702,7.4630625 L9.702,5.16515625 L11.233875,5.16515625 L11.233875,12.5694375 C11.233875,20.3124375 17.5333125,26.6119687 25.2764063,26.6119687 C28.4720625,26.6119687 31.4852813,25.5614062 33.990375,23.573625 C34.3216875,23.31075 34.3771875,22.828875 34.1142188,22.4974687 C33.8513438,22.1661563 33.3694688,22.11075 33.0380625,22.373625 C30.8067188,24.1440937 28.1226563,25.08 25.2763125,25.08 C18.378,25.08 12.7656563,19.46775 12.7656563,12.5693437 L12.7656563,8.2591875 C13.768125,8.3439375 14.3552813,8.59696875 15.0156563,8.8813125 C15.8614688,9.24571875 16.82025,9.6586875 18.6376875,9.6586875 C20.455125,9.6586875 21.4139063,9.24571875 22.2598125,8.8813125 C23.0724375,8.53125 23.77425,8.22890625 25.2758438,8.22890625 C26.7775313,8.22890625 27.4793438,8.53125 28.2920625,8.8813125 C29.137875,9.24571875 30.09675,9.6586875 31.9142813,9.6586875 C33.7318125,9.6586875 34.6906875,9.24571875 35.5365,8.88140625 C36.1969688,8.596875 36.7842188,8.3439375 37.7867813,8.2591875 L37.7867813,12.5693437 C37.7867813,15.4157812 36.850875,18.0996562 35.0804063,20.331 C34.8174375,20.6624063 34.8730313,21.1442812 35.20425,21.4071562 C35.5354688,21.670125 36.01725,21.6145312 36.2804063,21.2833125 C38.2680938,18.7783125 39.31875,15.7650937 39.31875,12.5693437 L39.31875,7.4649375 C39.31875,7.461 39.31875,5.16515625 39.31875,5.16515625 L40.8508125,5.16515625 L40.8508125,12.5694375 C40.8508125,21.1572187 33.8641875,28.1439375 25.2763125,28.1439375 C20.9559375,28.1439375 16.9395,26.4154687 13.9669688,23.2768125 C13.8222188,23.124 13.6213125,23.0375625 13.4108438,23.0375625 L8.93615625,23.0375625 C6.95859375,23.0375625 5.09915625,22.2674062 3.70059375,20.8688437 C2.302125,19.4701875 1.531875,17.6109375 1.531875,15.6331875 C1.531875,13.6553438 2.30203125,11.7960937 3.7005,10.397625 Z" id="Shape"></path>
                            </g>
                        </g>
                    </g>
                </g>
            </g>
        </g>
    </g>
</svg>