<?xml version="1.0" encoding="UTF-8"?>
<svg width="48px" height="40px" viewBox="0 0 48 40" version="1.1" xmlns="http://www.w3.org/2000/svg" xmlns:xlink="http://www.w3.org/1999/xlink">
    <!-- Generator: Sketch 51.3 (57544) - http://www.bohemiancoding.com/sketch -->
    <title>003-mocha</title>
    <desc>Created with Sketch.</desc>
    <defs></defs>
    <g id="Page-1" stroke="none" stroke-width="1" fill="none" fill-rule="evenodd">
        <g id="Desktop-HD" transform="translate(-446.000000, -370.000000)" fill-rule="nonzero">
            <g id="Kaffe-type" transform="translate(0.000000, 360.000000)">
                <g id="Typer" transform="translate(446.000000, 7.000000)">
                    <g id="Mocha" transform="translate(0.000000, 3.000000)">
                        <g id="003-mocha">
                            <path d="M46.0606061,35.3939394 L45.4626518,37.3895523 C45.2317789,38.1585473 44.3572066,38.7878788 43.5181102,38.7878788 L6.90613224,38.7878788 C6.06712914,38.7878788 5.19246351,38.1585473 4.96159061,37.3895523 L4.36363636,35.3939394 L46.0606061,35.3939394 Z" id="Shape" fill="#E8D6BD"></path>
                            <path d="M41.6969697,8.24242424 L41.6969697,16.3232323 C41.6969697,25.2494983 34.4027086,32.4848485 25.4060606,32.4848485 C20.7468819,32.4848485 16.5458728,30.5444123 13.5768369,27.434355 L9.11515152,27.434355 C6.93926675,27.434355 4.89376682,26.5939043 3.35531909,25.0676664 C1.81687135,23.5414286 0.96969697,21.5121628 0.96969697,19.3535469 C0.96969697,17.1949311 1.81677788,15.1656653 3.35531909,13.6394275 C4.89386029,12.1131896 6.93936021,11.2727389 9.11515152,11.2727389 L9.11515152,8.24242424 L12.1697087,8.24242424 L12.1697087,14.3030535 L12.1697087,16.3232323 C12.1697087,18.3838388 12.6513381,20.3363291 13.5075787,22.0736996 C15.6610317,26.4403532 20.1847784,29.4545339 25.4060606,29.4545339 C30.6273429,29.4545339 35.1510895,26.4403532 37.3045425,22.0736996 C38.1608765,20.3363291 38.6424126,18.3838388 38.6424126,16.3232323 L38.6424126,14.3030535 L38.6424126,8.24242424 L41.6969697,8.24242424 Z M9.11515152,24.4040404 L11.2950553,24.4040404 C9.90830264,22.0272449 9.11515152,19.2666645 9.11515152,16.3232323 L9.11515152,14.3030535 C7.75484967,14.3030535 6.47707816,14.8283352 5.51484733,15.7818166 C4.55364463,16.736318 4.02425411,18.0040411 4.02425411,19.3535469 C4.02425411,20.7030527 4.55373809,21.9706832 5.51587546,22.9252773 C6.47707816,23.8788514 7.75484967,24.4040404 9.11515152,24.4040404 Z" id="Shape" fill="#C8FEFF"></path>
                            <path d="M37.3333333,22.3030303 C35.1843783,26.6057256 30.667924,29.5757576 25.4550587,29.5757576 C20.2421933,29.5757576 15.7257391,26.6057256 13.5757576,22.3030303 L37.3333333,22.3030303 Z" id="Shape" fill="#BD9F79"></path>
                            <path d="M38.7878788,14.5454545 L38.7878788,16.5622354 C38.7878788,18.6193759 38.3027205,20.5685821 37.4402063,22.3030303 C37.4391707,22.3030303 13.4688846,22.3030303 13.4688846,22.3030303 C12.6063704,20.5686747 12.1212121,18.6193759 12.1212121,16.5622354 L12.1212121,14.5454545 C15.4545219,14.5454545 15.4545219,15.9572104 18.7879259,15.9572104 C22.1213298,15.9572104 22.1212357,14.5454545 25.4536039,14.5454545 C28.7879494,14.5454545 28.7879494,15.9572104 32.1212592,15.9572104 C35.454569,15.9572104 35.454569,14.5454545 38.7878788,14.5454545 Z" id="Shape" fill="#B75548"></path>
                            <path d="M38.7878788,8.24242424 L38.7878788,14.5323609 C35.454569,14.5323609 35.454569,16 32.121165,16 C28.7877611,16 28.7878553,14.5323609 25.4535098,14.5323609 C22.1212357,14.5323609 22.1212357,16 18.7878317,16 C15.4544278,16 15.4545219,14.5323609 12.1212121,14.5323609 L12.1212121,8.24242424 L38.7878788,8.24242424 Z" id="Shape" fill="#F9EBDB"></path>
                            <path d="M38.7878788,8.24242424 L12.1212121,8.24242424 C12.1212121,5.55168547 14.3765911,3.36980353 17.158178,3.36980353 C18.4741217,3.36980353 19.6709649,3.8579855 20.5684089,4.65665484 C21.1160833,2.53934772 23.0956008,0.96969697 25.4545455,0.96969697 C27.8134901,0.96969697 29.7930076,2.53934772 30.340682,4.65665484 C31.2381261,3.8579855 32.4350633,3.36980353 33.7509129,3.36980353 C36.5324998,3.36989461 38.7878788,5.55168547 38.7878788,8.24242424 Z" id="Shape" fill="#FFFFFF"></path>
                            <g id="Group" fill="#700D00">
                                <path d="M47.2340625,34.6027167 L3.319125,34.6027167 C2.896125,34.6027167 2.5531875,34.9440159 2.5531875,35.3652036 C2.5531875,35.7863912 2.896125,36.1276904 3.319125,36.1276904 L3.76265625,36.1276904 L4.2043125,37.6667566 C4.52925,38.7991009 5.7105,39.6860868 6.89353125,39.6860868 L43.6594688,39.6860868 C44.8425,39.6860868 46.02375,38.7990075 46.3486875,37.6667566 L46.7904375,36.1276904 L47.2339688,36.1276904 C47.6569688,36.1276904 47.9999063,35.7863912 47.9999063,35.3652036 C48,34.9440159 47.6570625,34.6027167 47.2340625,34.6027167 Z M44.8757813,37.2477155 C44.738625,37.7257397 44.158875,38.1610198 43.6595625,38.1610198 L6.893625,38.1610198 C6.39421875,38.1610198 5.8145625,37.7257397 5.67740625,37.2477155 L5.3559375,36.1276904 L45.1973438,36.1276904 L44.8757813,37.2477155 Z" id="Shape"></path>
                                <path d="M8.93615625,28.3653504 L13.0858125,28.3653504 C16.3261875,31.6462837 20.6420625,33.4487204 25.2765,33.4487204 C34.7089688,33.4487204 42.382875,25.8092929 42.382875,16.4194121 L42.382875,8.28600142 C42.382875,7.86481377 42.0399375,7.52351458 41.6169375,7.52351458 L39.2668125,7.52351458 C38.8907813,4.70921952 36.46575,2.5304857 33.5375625,2.5304857 C32.4589688,2.5304857 31.4157188,2.82754759 30.51225,3.38107384 C29.5765313,1.38852867 27.5559375,0.0714889742 25.2765938,0.0714889742 C22.99725,0.0714889742 20.9766563,1.38852867 20.0409375,3.38107384 C19.137375,2.82764092 18.0942188,2.5304857 17.015625,2.5304857 C14.0874375,2.5304857 11.6624063,4.70921952 11.286375,7.52351458 L8.9360625,7.52351458 C8.5130625,7.52351458 8.170125,7.86481377 8.170125,8.28600142 L8.170125,10.6054733 C6.072,10.7815826 4.123125,11.6797678 2.61721875,13.1789831 C0.9294375,14.8592539 0,17.0933311 0,19.4694528 C0,21.8455746 0.92953125,24.0795584 2.6173125,25.7598293 C4.30528125,27.4401002 6.549375,28.3653504 8.93615625,28.3653504 Z M37.7871563,16.4194121 C37.7871563,18.1798515 37.4252813,19.8778546 36.7269375,21.4444524 L13.8305625,21.4444524 C13.1466563,19.9065995 12.76575,18.2066365 12.76575,16.4194121 L12.76575,15.1786211 C13.7682188,15.2629893 14.355375,15.5148806 15.01575,15.7979434 C15.8615625,16.1607079 16.8203438,16.5718162 18.6377813,16.5718162 C20.4552188,16.5718162 21.414,16.1607079 22.2599063,15.7979434 C23.0725313,15.449458 23.7743438,15.1484763 25.2759375,15.1484763 C26.777625,15.1484763 27.4794375,15.449458 28.2921563,15.7979434 C29.1380625,16.1607079 30.0968438,16.5718162 31.914375,16.5718162 C33.7319063,16.5718162 34.6906875,16.1607079 35.5365938,15.7979434 C36.1969688,15.5147873 36.7842188,15.2629893 37.786875,15.1786211 L37.786875,16.4194121 L37.7871563,16.4194121 Z M37.7871562,13.6511276 C36.4502812,13.7477217 35.6489062,14.0894876 34.930875,14.3974688 C34.1181562,14.7459542 33.4163438,15.0469358 31.9146563,15.0469358 C30.4129687,15.0469358 29.7111562,14.7459542 28.8984375,14.3974688 C28.0525312,14.0347042 27.09375,13.623596 25.2762188,13.623596 C23.4587813,13.623596 22.5,14.0347042 21.6540938,14.3974688 C20.8414688,14.7459542 20.1396563,15.0469358 18.6380625,15.0469358 C17.1364688,15.0469358 16.43475,14.7459542 15.622125,14.3974688 C14.9041875,14.0894876 14.1028125,13.7477217 12.7660313,13.6511276 L12.7660313,9.04858159 L37.7873437,9.04858159 L37.7871562,13.6511276 Z M17.0155313,4.05555271 C18.0842813,4.05555271 19.1059688,4.45247517 19.8923438,5.17315123 C20.0912813,5.35551344 20.37225,5.41990952 20.6307188,5.34263423 C20.88975,5.26545227 21.0885938,5.05817157 21.154125,4.79722749 C21.6274688,2.91275573 23.3225625,1.59664931 25.2764063,1.59664931 C27.23025,1.59664931 28.9253438,2.91275573 29.3986875,4.79722749 C29.4642188,5.05817157 29.6631563,5.2655456 29.9220938,5.34263423 C30.1810313,5.41972286 30.461625,5.35532679 30.6604688,5.17315123 C31.4468438,4.45247517 32.4685313,4.05555271 33.5372813,4.05555271 C35.6189063,4.05555271 37.3545938,5.55374136 37.7164688,7.52351458 L12.8361563,7.52351458 C13.198125,5.55374136 14.9338125,4.05555271 17.0155313,4.05555271 Z M3.7005,14.257384 C5.098875,12.8652155 6.958125,12.098529 8.9360625,12.098529 C9.3590625,12.098529 9.702,11.7572298 9.702,11.3360421 L9.702,9.04848826 L11.233875,9.04848826 L11.233875,16.4194121 C11.233875,24.1275288 17.5333125,30.3986798 25.2764063,30.3986798 C28.4719688,30.3986798 31.4851875,29.3528502 33.990375,27.3740242 C34.3217813,27.1123335 34.3771875,26.6326294 34.1143125,26.3027162 C33.8513438,25.9727096 33.3694688,25.9177397 33.0381563,26.1794304 C30.806625,27.9419229 28.12275,28.8736127 25.2764063,28.8736127 C20.790375,28.8736127 16.8488438,26.5104635 14.6402813,22.9693328 L35.9119688,22.9693328 C35.65875,23.3734415 35.3828438,23.7668175 35.0804063,24.146101 C34.8175313,24.4759209 34.8730313,24.9555317 35.2043438,25.2173157 C35.53575,25.4791931 36.0174375,25.4237564 36.2805,25.0939365 C38.2680938,22.6001286 39.3188438,19.6005782 39.3188438,16.4193188 L39.3188438,9.04839494 L40.8507188,9.04839494 L40.8507188,16.4193188 C40.8507188,24.9684109 33.8640938,31.9236534 25.2762188,31.9236534 C20.9559375,31.9236534 16.9395,30.2029717 13.966875,27.0784555 C13.822125,26.9263315 13.6212188,26.8402834 13.41075,26.8402834 L8.93615625,26.8402834 C6.95859375,26.8402834 5.09915625,26.0735968 3.70059375,24.681335 C2.302125,23.2892599 1.531875,21.4382928 1.531875,19.4694528 C1.531875,17.5006129 2.30203125,15.6496458 3.7005,14.257384 Z" id="Shape"></path>
                                <path d="M8.93615625,25.315403 L11.1225938,25.315403 C11.3964375,25.315403 11.6492813,25.1699052 11.7861563,24.9338796 C11.9230313,24.697854 11.9228438,24.4069518 11.7857813,24.1711128 C10.4225625,21.8253225 9.70209375,19.1448593 9.70209375,16.4195988 L9.70209375,14.3862695 C9.70209375,13.9650818 9.35915625,13.6237826 8.93615625,13.6237826 C7.36753125,13.6237826 5.89284375,14.2318122 4.783875,15.3359715 C3.6748125,16.4400376 3.0639375,17.9081747 3.0639375,19.4696395 C3.0639375,21.031011 3.67471875,22.4991481 4.78396875,23.6033074 C5.89303125,24.7073735 7.36771875,25.315403 8.93615625,25.315403 Z M5.8670625,16.4140925 C6.50325,15.7807711 7.30228125,15.3682629 8.170125,15.2152056 L8.170125,16.4194121 C8.170125,18.9780828 8.74884375,21.5014756 9.85246875,23.790336 L8.93615625,23.790336 C7.77684375,23.790336 6.68690625,23.3408701 5.8670625,22.5249065 C5.0473125,21.7087563 4.5958125,20.6236358 4.5958125,19.4694528 C4.59571875,18.3153632 5.047125,17.2302427 5.8670625,16.4140925 Z" id="Shape"></path>
                            </g>
                        </g>
                    </g>
                </g>
            </g>
        </g>
    </g>
</svg>