<?xml version="1.0" encoding="UTF-8"?>
<svg width="40px" height="35px" viewBox="0 0 40 35" version="1.1" xmlns="http://www.w3.org/2000/svg" xmlns:xlink="http://www.w3.org/1999/xlink">
    <!-- Generator: Sketch 51.3 (57544) - http://www.bohemiancoding.com/sketch -->
    <title>Shape</title>
    <desc>Created with Sketch.</desc>
    <defs></defs>
    <g id="Page-1" stroke="none" stroke-width="1" fill="none" fill-rule="evenodd">
        <g id="Desktop-HD" transform="translate(-1220.000000, -23.000000)" fill="#FFFFFF">
            <g id="Menubar">
                <path d="M1249.45455,35.7272727 L1241.45455,23.7272727 C1241.09091,23.3636364 1240.54545,23 1240,23 C1239.45455,23 1238.90909,23.1818182 1238.54545,23.7272727 L1230.54545,35.7272727 L1221.81818,35.7272727 C1220.72727,35.7272727 1220,36.4545455 1220,37.5454545 L1220,38.0909091 L1224.54545,55 C1224.90909,56.4545455 1226.36364,57.7272727 1228,57.7272727 L1251.63636,57.7272727 C1253.27273,57.7272727 1254.72727,56.6363636 1255.09091,55 L1259.63636,38.0909091 L1259.63636,37.5454545 C1259.63636,36.4545455 1258.90909,35.7272727 1257.81818,35.7272727 L1249.45455,35.7272727 L1249.45455,35.7272727 Z M1234.54545,35.7272727 L1240,27.7272727 L1245.45455,35.7272727 L1234.54545,35.7272727 L1234.54545,35.7272727 Z M1240,50.2727273 C1238,50.2727273 1236.36364,48.6363636 1236.36364,46.6363636 C1236.36364,44.6363636 1238,43 1240,43 C1242,43 1243.63636,44.6363636 1243.63636,46.6363636 C1243.63636,48.6363636 1242,50.2727273 1240,50.2727273 L1240,50.2727273 Z" id="Shape"></path>
            </g>
        </g>
    </g>
</svg>