<?xml version="1.0" encoding="UTF-8"?>
<svg width="325px" height="280px" viewBox="0 0 325 280" version="1.1" xmlns="http://www.w3.org/2000/svg" xmlns:xlink="http://www.w3.org/1999/xlink">
    <!-- Generator: Sketch 51.3 (57544) - http://www.bohemiancoding.com/sketch -->
    <title>Group 10</title>
    <desc>Created with Sketch.</desc>
    <defs></defs>
    <g id="Page-1" stroke="none" stroke-width="1" fill="none" fill-rule="evenodd">
        <g id="Desktop-HD" transform="translate(-905.000000, -80.000000)" fill-rule="nonzero">
            <g id="Group-4" transform="translate(0.000000, 80.000000)">
                <g id="Group-10" transform="translate(890.000000, -43.000000)">
                    <g id="coffee-bean" transform="translate(202.621450, 169.179665) rotate(40.000000) translate(-202.621450, -169.179665) translate(146.185663, 115.233692)">
                        <path d="M85.7123039,36.4890558 C81.1119701,27.8965391 80.9756513,17.6174801 85.3482116,8.90811687 L88.7889713,2.05798837 C88.4783712,2.04681905 88.1746732,2.01331175 87.8614846,2.01331175 C75.2890796,2.01331175 65.0970799,12.1626367 65.0970799,24.6824001 L65.0970799,39.7951256 C65.1022564,51.9093629 74.679958,61.8756857 86.8330529,62.4126642 C90.4204851,54.0478264 90.008077,44.5153824 85.7123039,36.4890558 Z" id="Shape" fill="#523434"></path>
                        <path d="M68.8592994,39.7951256 L68.8592994,24.6824001 C68.8644321,13.304468 77.2699732,3.69469907 88.5027395,2.22466641 L88.585717,2.0605657 C88.27947,2.04681905 87.9783556,2.01331175 87.6678312,2.01331175 C75.2023778,2.01331175 65.0970799,12.1626367 65.0970799,24.6824001 L65.0970799,39.7951256 C65.1022124,51.9093629 74.5984379,61.8756857 86.6481482,62.4126642 C86.7165833,62.2562959 86.7576444,62.0939137 86.8218024,61.9366863 C76.3674855,59.762997 68.8669985,50.5175142 68.8592994,39.7951256 Z" id="Shape" fill="#92543E"></path>
                        <path d="M95.5155361,3.35551958 L92.7659624,8.85581874 C88.4094612,17.5809058 88.5453062,27.8775071 93.129649,36.483827 C97.2230577,44.176156 97.7827738,53.2678722 94.6643548,61.4060083 C104.039387,58.3843296 110.395735,49.6523572 110.396594,39.7938176 L110.396594,24.6553009 C110.390576,15.1332684 104.447782,6.62764233 95.5155361,3.35551958 Z" id="Shape" fill="#523434"></path>
                        <path d="M95.7701834,3.35551958 L93.0056661,8.83255754 C92.8561158,9.13250474 92.7532462,9.44702098 92.6123405,9.74868227 C101.258589,13.1732236 106.931987,21.4697662 106.940632,30.7004305 L106.940632,45.7749252 C106.941496,48.7195508 106.360584,51.6367527 105.229881,54.3594172 C108.787101,50.2672791 110.740762,45.0421967 110.732118,39.6397172 L110.732118,24.5652224 C110.726066,15.0834594 104.750975,6.61380427 95.7701834,3.35551958 Z" id="Shape" fill="#333333"></path>
                        <path d="M43.2101092,83.9571454 C45.5508375,76.309182 51.4719585,70.2632495 59.096758,67.7347637 L65.0970799,65.7448547 C64.9249042,65.5564813 64.7682243,65.3681078 64.5865791,65.1797343 C57.2768611,57.9110866 45.4277318,57.9110866 38.1188749,65.1797343 L29.2957327,73.9587948 C22.2261999,80.9954007 21.9756845,92.3200719 28.7284139,99.6589316 C35.6963632,96.8761414 41.0217564,91.1024941 43.2101092,83.9571454 Z" id="Shape" fill="#92543E"></path>
                        <path d="M33.4529141,78.5347624 L42.2751953,69.7659969 C47.9234181,64.1530965 56.5296187,62.7246073 63.7041789,66.2084766 L65.0970799,65.7451597 C64.9249042,65.5576063 64.7682243,65.3691964 64.5865791,65.1807866 C57.2768611,57.9107359 45.4277318,57.9107359 38.1188749,65.1807866 L29.2957327,73.953834 C22.2261999,80.9917982 21.9756845,92.3186553 28.7284139,99.6589316 C29.0323041,99.538178 29.3146722,99.3805989 29.6142578,99.246999 C26.4565561,92.2184556 27.9837542,83.9815197 33.4529141,78.5347624 Z" id="Shape" fill="#523434"></path>
                        <path d="M68.0609499,70.4659112 L63.2746192,72.059667 C55.6833357,74.5908254 49.7880503,80.6419559 47.4578744,88.2962677 C45.3727994,95.1357078 40.4227822,100.734418 33.8907478,103.64345 C41.0843844,107.334794 49.8386132,105.964678 55.5607851,100.252863 L64.3432949,91.4709265 C69.8692144,85.9441928 71.3543911,77.55384 68.0609499,70.4659112 Z" id="Shape" fill="#92543E"></path>
                        <path d="M25.6915704,27.4631204 C34.0895108,24.1370676 43.5775478,25.0881027 51.1491384,30.0154934 L57.1039947,33.8907478 C57.1493797,33.6080075 57.2118913,33.3252674 57.2435751,33.0468112 C58.5520337,21.5007293 50.2585646,11.0787543 38.7187822,9.76786778 L24.7855829,8.18709307 C13.620013,6.92847061 3.43921231,14.6806929 1.67775979,25.7846717 C9.01557484,29.9529479 17.8451008,30.5698356 25.6915704,27.4631204 Z" id="Shape" fill="#A55F40"></path>
                        <path d="M27.8953853,13.3737171 L41.8713613,14.9491769 C47.4548797,15.5703042 52.5556386,18.3880188 56.037177,22.7735034 C53.1440555,15.6275471 46.5460548,10.6337505 38.8493894,9.76485537 L24.8734133,8.18854152 C13.6660035,6.92407292 3.44386961,14.6578363 1.67775979,25.7381696 C2.92932708,26.4285011 4.23243432,27.0222887 5.57591475,27.5152606 C8.73532705,18.1590474 18.0340328,12.2673072 27.8953853,13.3737171 Z" id="Shape" fill="#523434"></path>
                        <path d="M55.3660731,40.1157136 L50.5880219,37.0308031 C43.0127078,32.1325919 33.519148,31.1880404 25.1179343,34.4978035 C17.6085893,37.4489951 9.17996008,37.018879 2.01331175,33.3173271 C3.81761085,42.2177454 11.1898771,48.9454398 20.2636333,49.9717559 L34.2036851,51.5431695 C42.9698708,52.5243448 51.4207755,47.9608576 55.3660731,40.1157136 Z" id="Shape" fill="#A55F40"></path>
                        <path d="M90.5872257,2.77740038 C91.0528822,1.84473626 90.6739993,0.712154066 89.7409679,0.246250881 C89.5012663,0.126986489 89.2392272,0.0600612869 88.972033,0.0489069035 L88.664459,0.0300306434 C88.4359265,0.0171603363 88.2091122,0 87.9762839,0 C74.4206937,0.0154443027 63.4348062,10.9869053 63.4193415,24.5255526 L63.4193415,39.6180685 C63.4021586,52.7354296 73.747124,63.530997 86.8697051,64.090424 L86.952183,64.090424 C87.7099488,64.090424 88.3938285,63.6391071 88.6902334,62.9432556 C92.5074146,54.0679296 92.0701099,43.9398992 87.5020358,35.4257983 C83.2157613,27.3844647 83.0894669,17.7686702 87.1626735,9.61751042 L90.5872257,2.77740038 Z M83.782797,7.94094568 C79.1605968,17.1843608 79.3014966,28.0906126 84.1608209,37.2121892 C87.9659741,44.3054142 88.5287142,52.6916707 85.7055635,60.2284904 C75.1647132,59.0993403 67.178101,50.2051378 67.1970023,39.6180685 L67.1970023,24.5255526 C67.2090302,13.9075945 75.235163,5.00652817 85.8078018,3.88681606 L83.782797,7.94094568 Z" id="Shape" fill="#000000"></path>
                        <path d="M96.3470408,1.45875462 C95.4457632,1.12619922 94.4399647,1.52664042 94.0116008,2.38853455 L91.2743556,7.88300193 C86.6651605,17.1404144 86.8056637,28.0631817 91.6513158,37.1985712 C95.4757485,44.3970625 95.9992092,52.9051513 93.0846215,60.5204109 C92.7136582,61.4948753 93.2002796,62.5870661 94.171809,62.9591499 C94.3868477,63.0416443 94.6147372,63.0837507 94.8443402,63.0837507 C95.040531,63.0846102 95.2358647,63.0536746 95.4226315,62.9935226 C105.562004,59.7461669 112.436388,50.2842373 112.409829,39.6080938 L112.409829,24.4927231 C112.373847,14.2041313 105.969807,5.02061988 96.3470408,1.45875462 Z M108.641941,39.6080938 C108.659932,47.2173379 104.515083,54.2233424 97.8488845,57.8539529 C99.6582935,50.273066 98.6396442,42.2900194 94.9831302,35.4120531 C90.7089155,27.3576832 90.5829765,17.7281867 94.643866,9.56468352 L96.5972053,5.64362401 C103.919657,9.04909384 108.615382,16.397106 108.641941,24.4927231 L108.641941,39.6080938 Z" id="Shape" fill="#000000"></path>
                        <path d="M66.1055804,64.1807459 C65.9793511,64.0342802 65.853122,63.8903993 65.7114359,63.7482415 C57.6774142,55.7038352 44.6689283,55.7038352 36.6349066,63.7482415 L27.8349221,72.5783928 C20.0507829,80.3677767 19.7759981,92.9310768 27.2115041,101.055609 C27.7430409,101.638886 28.5785587,101.830153 29.3093145,101.535499 C36.8040709,98.5372621 42.5299,92.2780127 44.8647124,84.5291221 C47.028643,77.4246802 52.4822634,71.8072946 59.5055922,69.4526449 L65.4830211,67.4477898 C66.4722465,67.1178114 67.0072183,66.0451665 66.6774765,65.0517853 C66.5933235,64.7967629 66.4542136,64.5615563 66.2721688,64.3642586 L66.1055804,64.1807459 Z M58.3042672,65.8564843 C50.1225486,68.6014216 43.7681493,75.1475712 41.2495743,83.4271842 C39.3836136,89.6218164 34.9827627,94.7300187 29.1435849,97.4792638 C23.9338361,90.7892332 24.5229062,81.2500164 30.5157918,75.256128 L39.3157762,66.4268384 C45.2288024,60.5079061 54.5774978,59.8445031 61.261639,64.8699957 L58.3042672,65.8564843 Z" id="Shape" fill="#000000"></path>
                        <path d="M45.5024011,87.7416835 C43.5793995,94.09948 39.013661,99.3043709 32.9870573,102.009431 C32.0396773,102.43886 31.616908,103.561585 32.0439565,104.51616 C32.2185414,104.906786 32.5180743,105.22584 32.89463,105.421583 C40.8048682,109.533068 50.4455511,108.00937 56.7271856,101.656747 L65.4975112,92.8189527 C71.5480775,86.6844938 73.177537,77.4077849 69.5848527,69.553884 C69.1826228,68.6769168 68.1907407,68.2449004 67.2818721,68.5501575 L62.4996139,70.1566371 C54.3446147,72.9030881 48.0124874,79.4549039 45.5024011,87.7416835 Z M66.7957729,72.7116556 C68.882234,78.8047238 67.3494809,85.5626312 62.8445048,90.1380373 L54.0733234,98.9758316 C49.9423357,103.158025 43.9345599,104.848149 38.2502798,103.425341 C43.4561631,99.999391 47.299599,94.8384779 49.109634,88.8454377 C51.2645598,81.7331216 56.6997997,76.1108737 63.6986018,73.7533236 L66.7957729,72.7116556 Z" id="Shape" fill="#000000"></path>
                        <path d="M0.968397349,27.2405923 C8.82889384,31.6974268 18.3043136,32.3562112 26.7125768,29.0289654 C34.5773728,25.9435305 43.4585902,26.8270363 50.5511814,31.4017856 L56.5336205,35.2664832 C57.4098752,35.8304229 58.5802217,35.5817768 59.1477666,34.7110877 C59.2930924,34.4889295 59.389403,34.2394288 59.4298192,33.9771113 L59.4788344,33.7011226 C59.5166707,33.4883633 59.554507,33.2781676 59.5794445,33.0619905 C61.0120655,20.5160358 51.9390867,9.19109626 39.3129329,7.76757524 C39.3120731,7.76672084 39.3112132,7.76672084 39.3103531,7.76672084 L25.3186523,6.1911066 C13.0914998,4.79407372 1.93150381,13.2292482 0.0224890012,25.3112342 C-0.0987591674,26.0870789 0.277884361,26.8569423 0.968397349,27.2405923 Z M24.8955733,9.92934492 L38.8872744,11.5058136 C48.5725136,12.5995153 55.9033015,20.7211049 55.9471573,30.408055 L52.6098215,28.253121 C44.4896301,23.015315 34.3211178,22.0044954 25.3169323,25.5376646 C18.410943,28.2693555 10.6570762,27.9275737 4.0219606,24.5986191 C6.20356888,15.1398083 15.1931356,8.82197194 24.8955733,9.92934492 Z" id="Shape" fill="#000000"></path>
                        <path d="M20.0123083,51.9505248 L34.013734,53.5415981 C43.6090563,54.6290471 52.860152,49.5962535 57.1784772,40.9415042 C57.610482,40.0782715 57.3256342,39.0279043 56.5175618,38.5009959 L51.71904,35.3749033 C43.5935662,30.0885729 33.4182216,29.0675263 24.4072242,32.6342903 C17.3738099,35.4240583 9.47810732,35.0170195 2.76654499,31.5201077 C1.83971436,31.0354555 0.697741851,31.3959264 0.21410329,32.3246992 C0.0153122503,32.7075917 -0.0475090879,33.1474005 0.035965859,33.5716869 C1.98687137,43.4052964 10.0684564,50.840654 20.0123083,51.9505248 Z M25.8056455,36.1613851 C33.6720887,33.0499527 42.5531405,33.9416438 49.6467946,38.554463 L52.9660018,40.7164256 C49.0487007,47.0703706 41.8302642,50.5957408 34.4225032,49.7739017 L20.4210777,48.1811037 C13.5313781,47.406695 7.59518666,42.9663499 4.89558794,36.5675616 C11.6863224,38.9632264 19.1121553,38.8183482 25.8056455,36.1613851 Z" id="Shape" fill="#000000"></path>
                    </g>
                    <g id="coffee-bean" transform="translate(235.423889, 268.590042) rotate(123.000000) translate(-235.423889, -268.590042) translate(178.988101, 214.644069)">
                        <path d="M85.7123039,36.4890558 C81.1119701,27.8965391 80.9756513,17.6174801 85.3482116,8.90811687 L88.7889713,2.05798837 C88.4783712,2.04681905 88.1746732,2.01331175 87.8614846,2.01331175 C75.2890796,2.01331175 65.0970799,12.1626367 65.0970799,24.6824001 L65.0970799,39.7951256 C65.1022564,51.9093629 74.679958,61.8756857 86.8330529,62.4126642 C90.4204851,54.0478264 90.008077,44.5153824 85.7123039,36.4890558 Z" id="Shape" fill="#523434"></path>
                        <path d="M68.8592994,39.7951256 L68.8592994,24.6824001 C68.8644321,13.304468 77.2699732,3.69469907 88.5027395,2.22466641 L88.585717,2.0605657 C88.27947,2.04681905 87.9783556,2.01331175 87.6678312,2.01331175 C75.2023778,2.01331175 65.0970799,12.1626367 65.0970799,24.6824001 L65.0970799,39.7951256 C65.1022124,51.9093629 74.5984379,61.8756857 86.6481482,62.4126642 C86.7165833,62.2562959 86.7576444,62.0939137 86.8218024,61.9366863 C76.3674855,59.762997 68.8669985,50.5175142 68.8592994,39.7951256 Z" id="Shape" fill="#92543E"></path>
                        <path d="M95.5155361,3.35551958 L92.7659624,8.85581874 C88.4094612,17.5809058 88.5453062,27.8775071 93.129649,36.483827 C97.2230577,44.176156 97.7827738,53.2678722 94.6643548,61.4060083 C104.039387,58.3843296 110.395735,49.6523572 110.396594,39.7938176 L110.396594,24.6553009 C110.390576,15.1332684 104.447782,6.62764233 95.5155361,3.35551958 Z" id="Shape" fill="#523434"></path>
                        <path d="M95.7701834,3.35551958 L93.0056661,8.83255754 C92.8561158,9.13250474 92.7532462,9.44702098 92.6123405,9.74868227 C101.258589,13.1732236 106.931987,21.4697662 106.940632,30.7004305 L106.940632,45.7749252 C106.941496,48.7195508 106.360584,51.6367527 105.229881,54.3594172 C108.787101,50.2672791 110.740762,45.0421967 110.732118,39.6397172 L110.732118,24.5652224 C110.726066,15.0834594 104.750975,6.61380427 95.7701834,3.35551958 Z" id="Shape" fill="#333333"></path>
                        <path d="M43.2101092,83.9571454 C45.5508375,76.309182 51.4719585,70.2632495 59.096758,67.7347637 L65.0970799,65.7448547 C64.9249042,65.5564813 64.7682243,65.3681078 64.5865791,65.1797343 C57.2768611,57.9110866 45.4277318,57.9110866 38.1188749,65.1797343 L29.2957327,73.9587948 C22.2261999,80.9954007 21.9756845,92.3200719 28.7284139,99.6589316 C35.6963632,96.8761414 41.0217564,91.1024941 43.2101092,83.9571454 Z" id="Shape" fill="#92543E"></path>
                        <path d="M33.4529141,78.5347624 L42.2751953,69.7659969 C47.9234181,64.1530965 56.5296187,62.7246073 63.7041789,66.2084766 L65.0970799,65.7451597 C64.9249042,65.5576063 64.7682243,65.3691964 64.5865791,65.1807866 C57.2768611,57.9107359 45.4277318,57.9107359 38.1188749,65.1807866 L29.2957327,73.953834 C22.2261999,80.9917982 21.9756845,92.3186553 28.7284139,99.6589316 C29.0323041,99.538178 29.3146722,99.3805989 29.6142578,99.246999 C26.4565561,92.2184556 27.9837542,83.9815197 33.4529141,78.5347624 Z" id="Shape" fill="#523434"></path>
                        <path d="M68.0609499,70.4659112 L63.2746192,72.059667 C55.6833357,74.5908254 49.7880503,80.6419559 47.4578744,88.2962677 C45.3727994,95.1357078 40.4227822,100.734418 33.8907478,103.64345 C41.0843844,107.334794 49.8386132,105.964678 55.5607851,100.252863 L64.3432949,91.4709265 C69.8692144,85.9441928 71.3543911,77.55384 68.0609499,70.4659112 Z" id="Shape" fill="#92543E"></path>
                        <path d="M25.6915704,27.4631204 C34.0895108,24.1370676 43.5775478,25.0881027 51.1491384,30.0154934 L57.1039947,33.8907478 C57.1493797,33.6080075 57.2118913,33.3252674 57.2435751,33.0468112 C58.5520337,21.5007293 50.2585646,11.0787543 38.7187822,9.76786778 L24.7855829,8.18709307 C13.620013,6.92847061 3.43921231,14.6806929 1.67775979,25.7846717 C9.01557484,29.9529479 17.8451008,30.5698356 25.6915704,27.4631204 Z" id="Shape" fill="#A55F40"></path>
                        <path d="M27.8953853,13.3737171 L41.8713613,14.9491769 C47.4548797,15.5703042 52.5556386,18.3880188 56.037177,22.7735034 C53.1440555,15.6275471 46.5460548,10.6337505 38.8493894,9.76485537 L24.8734133,8.18854152 C13.6660035,6.92407292 3.44386961,14.6578363 1.67775979,25.7381696 C2.92932708,26.4285011 4.23243432,27.0222887 5.57591475,27.5152606 C8.73532705,18.1590474 18.0340328,12.2673072 27.8953853,13.3737171 Z" id="Shape" fill="#523434"></path>
                        <path d="M55.3660731,40.1157136 L50.5880219,37.0308031 C43.0127078,32.1325919 33.519148,31.1880404 25.1179343,34.4978035 C17.6085893,37.4489951 9.17996008,37.018879 2.01331175,33.3173271 C3.81761085,42.2177454 11.1898771,48.9454398 20.2636333,49.9717559 L34.2036851,51.5431695 C42.9698708,52.5243448 51.4207755,47.9608576 55.3660731,40.1157136 Z" id="Shape" fill="#A55F40"></path>
                        <path d="M90.5872257,2.77740038 C91.0528822,1.84473626 90.6739993,0.712154066 89.7409679,0.246250881 C89.5012663,0.126986489 89.2392272,0.0600612869 88.972033,0.0489069035 L88.664459,0.0300306434 C88.4359265,0.0171603363 88.2091122,0 87.9762839,0 C74.4206937,0.0154443027 63.4348062,10.9869053 63.4193415,24.5255526 L63.4193415,39.6180685 C63.4021586,52.7354296 73.747124,63.530997 86.8697051,64.090424 L86.952183,64.090424 C87.7099488,64.090424 88.3938285,63.6391071 88.6902334,62.9432556 C92.5074146,54.0679296 92.0701099,43.9398992 87.5020358,35.4257983 C83.2157613,27.3844647 83.0894669,17.7686702 87.1626735,9.61751042 L90.5872257,2.77740038 Z M83.782797,7.94094568 C79.1605968,17.1843608 79.3014966,28.0906126 84.1608209,37.2121892 C87.9659741,44.3054142 88.5287142,52.6916707 85.7055635,60.2284904 C75.1647132,59.0993403 67.178101,50.2051378 67.1970023,39.6180685 L67.1970023,24.5255526 C67.2090302,13.9075945 75.235163,5.00652817 85.8078018,3.88681606 L83.782797,7.94094568 Z" id="Shape" fill="#000000"></path>
                        <path d="M96.3470408,1.45875462 C95.4457632,1.12619922 94.4399647,1.52664042 94.0116008,2.38853455 L91.2743556,7.88300193 C86.6651605,17.1404144 86.8056637,28.0631817 91.6513158,37.1985712 C95.4757485,44.3970625 95.9992092,52.9051513 93.0846215,60.5204109 C92.7136582,61.4948753 93.2002796,62.5870661 94.171809,62.9591499 C94.3868477,63.0416443 94.6147372,63.0837507 94.8443402,63.0837507 C95.040531,63.0846102 95.2358647,63.0536746 95.4226315,62.9935226 C105.562004,59.7461669 112.436388,50.2842373 112.409829,39.6080938 L112.409829,24.4927231 C112.373847,14.2041313 105.969807,5.02061988 96.3470408,1.45875462 Z M108.641941,39.6080938 C108.659932,47.2173379 104.515083,54.2233424 97.8488845,57.8539529 C99.6582935,50.273066 98.6396442,42.2900194 94.9831302,35.4120531 C90.7089155,27.3576832 90.5829765,17.7281867 94.643866,9.56468352 L96.5972053,5.64362401 C103.919657,9.04909384 108.615382,16.397106 108.641941,24.4927231 L108.641941,39.6080938 Z" id="Shape" fill="#000000"></path>
                        <path d="M66.1055804,64.1807459 C65.9793511,64.0342802 65.853122,63.8903993 65.7114359,63.7482415 C57.6774142,55.7038352 44.6689283,55.7038352 36.6349066,63.7482415 L27.8349221,72.5783928 C20.0507829,80.3677767 19.7759981,92.9310768 27.2115041,101.055609 C27.7430409,101.638886 28.5785587,101.830153 29.3093145,101.535499 C36.8040709,98.5372621 42.5299,92.2780127 44.8647124,84.5291221 C47.028643,77.4246802 52.4822634,71.8072946 59.5055922,69.4526449 L65.4830211,67.4477898 C66.4722465,67.1178114 67.0072183,66.0451665 66.6774765,65.0517853 C66.5933235,64.7967629 66.4542136,64.5615563 66.2721688,64.3642586 L66.1055804,64.1807459 Z M58.3042672,65.8564843 C50.1225486,68.6014216 43.7681493,75.1475712 41.2495743,83.4271842 C39.3836136,89.6218164 34.9827627,94.7300187 29.1435849,97.4792638 C23.9338361,90.7892332 24.5229062,81.2500164 30.5157918,75.256128 L39.3157762,66.4268384 C45.2288024,60.5079061 54.5774978,59.8445031 61.261639,64.8699957 L58.3042672,65.8564843 Z" id="Shape" fill="#000000"></path>
                        <path d="M45.5024011,87.7416835 C43.5793995,94.09948 39.013661,99.3043709 32.9870573,102.009431 C32.0396773,102.43886 31.616908,103.561585 32.0439565,104.51616 C32.2185414,104.906786 32.5180743,105.22584 32.89463,105.421583 C40.8048682,109.533068 50.4455511,108.00937 56.7271856,101.656747 L65.4975112,92.8189527 C71.5480775,86.6844938 73.177537,77.4077849 69.5848527,69.553884 C69.1826228,68.6769168 68.1907407,68.2449004 67.2818721,68.5501575 L62.4996139,70.1566371 C54.3446147,72.9030881 48.0124874,79.4549039 45.5024011,87.7416835 Z M66.7957729,72.7116556 C68.882234,78.8047238 67.3494809,85.5626312 62.8445048,90.1380373 L54.0733234,98.9758316 C49.9423357,103.158025 43.9345599,104.848149 38.2502798,103.425341 C43.4561631,99.999391 47.299599,94.8384779 49.109634,88.8454377 C51.2645598,81.7331216 56.6997997,76.1108737 63.6986018,73.7533236 L66.7957729,72.7116556 Z" id="Shape" fill="#000000"></path>
                        <path d="M0.968397349,27.2405923 C8.82889384,31.6974268 18.3043136,32.3562112 26.7125768,29.0289654 C34.5773728,25.9435305 43.4585902,26.8270363 50.5511814,31.4017856 L56.5336205,35.2664832 C57.4098752,35.8304229 58.5802217,35.5817768 59.1477666,34.7110877 C59.2930924,34.4889295 59.389403,34.2394288 59.4298192,33.9771113 L59.4788344,33.7011226 C59.5166707,33.4883633 59.554507,33.2781676 59.5794445,33.0619905 C61.0120655,20.5160358 51.9390867,9.19109626 39.3129329,7.76757524 C39.3120731,7.76672084 39.3112132,7.76672084 39.3103531,7.76672084 L25.3186523,6.1911066 C13.0914998,4.79407372 1.93150381,13.2292482 0.0224890012,25.3112342 C-0.0987591674,26.0870789 0.277884361,26.8569423 0.968397349,27.2405923 Z M24.8955733,9.92934492 L38.8872744,11.5058136 C48.5725136,12.5995153 55.9033015,20.7211049 55.9471573,30.408055 L52.6098215,28.253121 C44.4896301,23.015315 34.3211178,22.0044954 25.3169323,25.5376646 C18.410943,28.2693555 10.6570762,27.9275737 4.0219606,24.5986191 C6.20356888,15.1398083 15.1931356,8.82197194 24.8955733,9.92934492 Z" id="Shape" fill="#000000"></path>
                        <path d="M20.0123083,51.9505248 L34.013734,53.5415981 C43.6090563,54.6290471 52.860152,49.5962535 57.1784772,40.9415042 C57.610482,40.0782715 57.3256342,39.0279043 56.5175618,38.5009959 L51.71904,35.3749033 C43.5935662,30.0885729 33.4182216,29.0675263 24.4072242,32.6342903 C17.3738099,35.4240583 9.47810732,35.0170195 2.76654499,31.5201077 C1.83971436,31.0354555 0.697741851,31.3959264 0.21410329,32.3246992 C0.0153122503,32.7075917 -0.0475090879,33.1474005 0.035965859,33.5716869 C1.98687137,43.4052964 10.0684564,50.840654 20.0123083,51.9505248 Z M25.8056455,36.1613851 C33.6720887,33.0499527 42.5531405,33.9416438 49.6467946,38.554463 L52.9660018,40.7164256 C49.0487007,47.0703706 41.8302642,50.5957408 34.4225032,49.7739017 L20.4210777,48.1811037 C13.5313781,47.406695 7.59518666,42.9663499 4.89558794,36.5675616 C11.6863224,38.9632264 19.1121553,38.8183482 25.8056455,36.1613851 Z" id="Shape" fill="#000000"></path>
                    </g>
                    <g id="coffee-bean" transform="translate(116.319876, 82.486912) rotate(-6.000000) translate(-116.319876, -82.486912) translate(59.884088, 28.540939)">
                        <path d="M85.7123039,36.4890558 C81.1119701,27.8965391 80.9756513,17.6174801 85.3482116,8.90811687 L88.7889713,2.05798837 C88.4783712,2.04681905 88.1746732,2.01331175 87.8614846,2.01331175 C75.2890796,2.01331175 65.0970799,12.1626367 65.0970799,24.6824001 L65.0970799,39.7951256 C65.1022564,51.9093629 74.679958,61.8756857 86.8330529,62.4126642 C90.4204851,54.0478264 90.008077,44.5153824 85.7123039,36.4890558 Z" id="Shape" fill="#523434"></path>
                        <path d="M68.8592994,39.7951256 L68.8592994,24.6824001 C68.8644321,13.304468 77.2699732,3.69469907 88.5027395,2.22466641 L88.585717,2.0605657 C88.27947,2.04681905 87.9783556,2.01331175 87.6678312,2.01331175 C75.2023778,2.01331175 65.0970799,12.1626367 65.0970799,24.6824001 L65.0970799,39.7951256 C65.1022124,51.9093629 74.5984379,61.8756857 86.6481482,62.4126642 C86.7165833,62.2562959 86.7576444,62.0939137 86.8218024,61.9366863 C76.3674855,59.762997 68.8669985,50.5175142 68.8592994,39.7951256 Z" id="Shape" fill="#92543E"></path>
                        <path d="M95.5155361,3.35551958 L92.7659624,8.85581874 C88.4094612,17.5809058 88.5453062,27.8775071 93.129649,36.483827 C97.2230577,44.176156 97.7827738,53.2678722 94.6643548,61.4060083 C104.039387,58.3843296 110.395735,49.6523572 110.396594,39.7938176 L110.396594,24.6553009 C110.390576,15.1332684 104.447782,6.62764233 95.5155361,3.35551958 Z" id="Shape" fill="#523434"></path>
                        <path d="M95.7701834,3.35551958 L93.0056661,8.83255754 C92.8561158,9.13250474 92.7532462,9.44702098 92.6123405,9.74868227 C101.258589,13.1732236 106.931987,21.4697662 106.940632,30.7004305 L106.940632,45.7749252 C106.941496,48.7195508 106.360584,51.6367527 105.229881,54.3594172 C108.787101,50.2672791 110.740762,45.0421967 110.732118,39.6397172 L110.732118,24.5652224 C110.726066,15.0834594 104.750975,6.61380427 95.7701834,3.35551958 Z" id="Shape" fill="#333333"></path>
                        <path d="M43.2101092,83.9571454 C45.5508375,76.309182 51.4719585,70.2632495 59.096758,67.7347637 L65.0970799,65.7448547 C64.9249042,65.5564813 64.7682243,65.3681078 64.5865791,65.1797343 C57.2768611,57.9110866 45.4277318,57.9110866 38.1188749,65.1797343 L29.2957327,73.9587948 C22.2261999,80.9954007 21.9756845,92.3200719 28.7284139,99.6589316 C35.6963632,96.8761414 41.0217564,91.1024941 43.2101092,83.9571454 Z" id="Shape" fill="#92543E"></path>
                        <path d="M33.4529141,78.5347624 L42.2751953,69.7659969 C47.9234181,64.1530965 56.5296187,62.7246073 63.7041789,66.2084766 L65.0970799,65.7451597 C64.9249042,65.5576063 64.7682243,65.3691964 64.5865791,65.1807866 C57.2768611,57.9107359 45.4277318,57.9107359 38.1188749,65.1807866 L29.2957327,73.953834 C22.2261999,80.9917982 21.9756845,92.3186553 28.7284139,99.6589316 C29.0323041,99.538178 29.3146722,99.3805989 29.6142578,99.246999 C26.4565561,92.2184556 27.9837542,83.9815197 33.4529141,78.5347624 Z" id="Shape" fill="#523434"></path>
                        <path d="M68.0609499,70.4659112 L63.2746192,72.059667 C55.6833357,74.5908254 49.7880503,80.6419559 47.4578744,88.2962677 C45.3727994,95.1357078 40.4227822,100.734418 33.8907478,103.64345 C41.0843844,107.334794 49.8386132,105.964678 55.5607851,100.252863 L64.3432949,91.4709265 C69.8692144,85.9441928 71.3543911,77.55384 68.0609499,70.4659112 Z" id="Shape" fill="#92543E"></path>
                        <path d="M25.6915704,27.4631204 C34.0895108,24.1370676 43.5775478,25.0881027 51.1491384,30.0154934 L57.1039947,33.8907478 C57.1493797,33.6080075 57.2118913,33.3252674 57.2435751,33.0468112 C58.5520337,21.5007293 50.2585646,11.0787543 38.7187822,9.76786778 L24.7855829,8.18709307 C13.620013,6.92847061 3.43921231,14.6806929 1.67775979,25.7846717 C9.01557484,29.9529479 17.8451008,30.5698356 25.6915704,27.4631204 Z" id="Shape" fill="#A55F40"></path>
                        <path d="M27.8953853,13.3737171 L41.8713613,14.9491769 C47.4548797,15.5703042 52.5556386,18.3880188 56.037177,22.7735034 C53.1440555,15.6275471 46.5460548,10.6337505 38.8493894,9.76485537 L24.8734133,8.18854152 C13.6660035,6.92407292 3.44386961,14.6578363 1.67775979,25.7381696 C2.92932708,26.4285011 4.23243432,27.0222887 5.57591475,27.5152606 C8.73532705,18.1590474 18.0340328,12.2673072 27.8953853,13.3737171 Z" id="Shape" fill="#523434"></path>
                        <path d="M55.3660731,40.1157136 L50.5880219,37.0308031 C43.0127078,32.1325919 33.519148,31.1880404 25.1179343,34.4978035 C17.6085893,37.4489951 9.17996008,37.018879 2.01331175,33.3173271 C3.81761085,42.2177454 11.1898771,48.9454398 20.2636333,49.9717559 L34.2036851,51.5431695 C42.9698708,52.5243448 51.4207755,47.9608576 55.3660731,40.1157136 Z" id="Shape" fill="#A55F40"></path>
                        <path d="M90.5872257,2.77740038 C91.0528822,1.84473626 90.6739993,0.712154066 89.7409679,0.246250881 C89.5012663,0.126986489 89.2392272,0.0600612869 88.972033,0.0489069035 L88.664459,0.0300306434 C88.4359265,0.0171603363 88.2091122,0 87.9762839,0 C74.4206937,0.0154443027 63.4348062,10.9869053 63.4193415,24.5255526 L63.4193415,39.6180685 C63.4021586,52.7354296 73.747124,63.530997 86.8697051,64.090424 L86.952183,64.090424 C87.7099488,64.090424 88.3938285,63.6391071 88.6902334,62.9432556 C92.5074146,54.0679296 92.0701099,43.9398992 87.5020358,35.4257983 C83.2157613,27.3844647 83.0894669,17.7686702 87.1626735,9.61751042 L90.5872257,2.77740038 Z M83.782797,7.94094568 C79.1605968,17.1843608 79.3014966,28.0906126 84.1608209,37.2121892 C87.9659741,44.3054142 88.5287142,52.6916707 85.7055635,60.2284904 C75.1647132,59.0993403 67.178101,50.2051378 67.1970023,39.6180685 L67.1970023,24.5255526 C67.2090302,13.9075945 75.235163,5.00652817 85.8078018,3.88681606 L83.782797,7.94094568 Z" id="Shape" fill="#000000"></path>
                        <path d="M96.3470408,1.45875462 C95.4457632,1.12619922 94.4399647,1.52664042 94.0116008,2.38853455 L91.2743556,7.88300193 C86.6651605,17.1404144 86.8056637,28.0631817 91.6513158,37.1985712 C95.4757485,44.3970625 95.9992092,52.9051513 93.0846215,60.5204109 C92.7136582,61.4948753 93.2002796,62.5870661 94.171809,62.9591499 C94.3868477,63.0416443 94.6147372,63.0837507 94.8443402,63.0837507 C95.040531,63.0846102 95.2358647,63.0536746 95.4226315,62.9935226 C105.562004,59.7461669 112.436388,50.2842373 112.409829,39.6080938 L112.409829,24.4927231 C112.373847,14.2041313 105.969807,5.02061988 96.3470408,1.45875462 Z M108.641941,39.6080938 C108.659932,47.2173379 104.515083,54.2233424 97.8488845,57.8539529 C99.6582935,50.273066 98.6396442,42.2900194 94.9831302,35.4120531 C90.7089155,27.3576832 90.5829765,17.7281867 94.643866,9.56468352 L96.5972053,5.64362401 C103.919657,9.04909384 108.615382,16.397106 108.641941,24.4927231 L108.641941,39.6080938 Z" id="Shape" fill="#000000"></path>
                        <path d="M66.1055804,64.1807459 C65.9793511,64.0342802 65.853122,63.8903993 65.7114359,63.7482415 C57.6774142,55.7038352 44.6689283,55.7038352 36.6349066,63.7482415 L27.8349221,72.5783928 C20.0507829,80.3677767 19.7759981,92.9310768 27.2115041,101.055609 C27.7430409,101.638886 28.5785587,101.830153 29.3093145,101.535499 C36.8040709,98.5372621 42.5299,92.2780127 44.8647124,84.5291221 C47.028643,77.4246802 52.4822634,71.8072946 59.5055922,69.4526449 L65.4830211,67.4477898 C66.4722465,67.1178114 67.0072183,66.0451665 66.6774765,65.0517853 C66.5933235,64.7967629 66.4542136,64.5615563 66.2721688,64.3642586 L66.1055804,64.1807459 Z M58.3042672,65.8564843 C50.1225486,68.6014216 43.7681493,75.1475712 41.2495743,83.4271842 C39.3836136,89.6218164 34.9827627,94.7300187 29.1435849,97.4792638 C23.9338361,90.7892332 24.5229062,81.2500164 30.5157918,75.256128 L39.3157762,66.4268384 C45.2288024,60.5079061 54.5774978,59.8445031 61.261639,64.8699957 L58.3042672,65.8564843 Z" id="Shape" fill="#000000"></path>
                        <path d="M45.5024011,87.7416835 C43.5793995,94.09948 39.013661,99.3043709 32.9870573,102.009431 C32.0396773,102.43886 31.616908,103.561585 32.0439565,104.51616 C32.2185414,104.906786 32.5180743,105.22584 32.89463,105.421583 C40.8048682,109.533068 50.4455511,108.00937 56.7271856,101.656747 L65.4975112,92.8189527 C71.5480775,86.6844938 73.177537,77.4077849 69.5848527,69.553884 C69.1826228,68.6769168 68.1907407,68.2449004 67.2818721,68.5501575 L62.4996139,70.1566371 C54.3446147,72.9030881 48.0124874,79.4549039 45.5024011,87.7416835 Z M66.7957729,72.7116556 C68.882234,78.8047238 67.3494809,85.5626312 62.8445048,90.1380373 L54.0733234,98.9758316 C49.9423357,103.158025 43.9345599,104.848149 38.2502798,103.425341 C43.4561631,99.999391 47.299599,94.8384779 49.109634,88.8454377 C51.2645598,81.7331216 56.6997997,76.1108737 63.6986018,73.7533236 L66.7957729,72.7116556 Z" id="Shape" fill="#000000"></path>
                        <path d="M0.968397349,27.2405923 C8.82889384,31.6974268 18.3043136,32.3562112 26.7125768,29.0289654 C34.5773728,25.9435305 43.4585902,26.8270363 50.5511814,31.4017856 L56.5336205,35.2664832 C57.4098752,35.8304229 58.5802217,35.5817768 59.1477666,34.7110877 C59.2930924,34.4889295 59.389403,34.2394288 59.4298192,33.9771113 L59.4788344,33.7011226 C59.5166707,33.4883633 59.554507,33.2781676 59.5794445,33.0619905 C61.0120655,20.5160358 51.9390867,9.19109626 39.3129329,7.76757524 C39.3120731,7.76672084 39.3112132,7.76672084 39.3103531,7.76672084 L25.3186523,6.1911066 C13.0914998,4.79407372 1.93150381,13.2292482 0.0224890012,25.3112342 C-0.0987591674,26.0870789 0.277884361,26.8569423 0.968397349,27.2405923 Z M24.8955733,9.92934492 L38.8872744,11.5058136 C48.5725136,12.5995153 55.9033015,20.7211049 55.9471573,30.408055 L52.6098215,28.253121 C44.4896301,23.015315 34.3211178,22.0044954 25.3169323,25.5376646 C18.410943,28.2693555 10.6570762,27.9275737 4.0219606,24.5986191 C6.20356888,15.1398083 15.1931356,8.82197194 24.8955733,9.92934492 Z" id="Shape" fill="#000000"></path>
                        <path d="M20.0123083,51.9505248 L34.013734,53.5415981 C43.6090563,54.6290471 52.860152,49.5962535 57.1784772,40.9415042 C57.610482,40.0782715 57.3256342,39.0279043 56.5175618,38.5009959 L51.71904,35.3749033 C43.5935662,30.0885729 33.4182216,29.0675263 24.4072242,32.6342903 C17.3738099,35.4240583 9.47810732,35.0170195 2.76654499,31.5201077 C1.83971436,31.0354555 0.697741851,31.3959264 0.21410329,32.3246992 C0.0153122503,32.7075917 -0.0475090879,33.1474005 0.035965859,33.5716869 C1.98687137,43.4052964 10.0684564,50.840654 20.0123083,51.9505248 Z M25.8056455,36.1613851 C33.6720887,33.0499527 42.5531405,33.9416438 49.6467946,38.554463 L52.9660018,40.7164256 C49.0487007,47.0703706 41.8302642,50.5957408 34.4225032,49.7739017 L20.4210777,48.1811037 C13.5313781,47.406695 7.59518666,42.9663499 4.89558794,36.5675616 C11.6863224,38.9632264 19.1121553,38.8183482 25.8056455,36.1613851 Z" id="Shape" fill="#000000"></path>
                    </g>
                    <g id="coffee-bean" transform="translate(67.621707, 233.045596) rotate(167.000000) translate(-67.621707, -233.045596) translate(11.185919, 179.099622)">
                        <path d="M85.7123039,36.4890558 C81.1119701,27.8965391 80.9756513,17.6174801 85.3482116,8.90811687 L88.7889713,2.05798837 C88.4783712,2.04681905 88.1746732,2.01331175 87.8614846,2.01331175 C75.2890796,2.01331175 65.0970799,12.1626367 65.0970799,24.6824001 L65.0970799,39.7951256 C65.1022564,51.9093629 74.679958,61.8756857 86.8330529,62.4126642 C90.4204851,54.0478264 90.008077,44.5153824 85.7123039,36.4890558 Z" id="Shape" fill="#523434"></path>
                        <path d="M68.8592994,39.7951256 L68.8592994,24.6824001 C68.8644321,13.304468 77.2699732,3.69469907 88.5027395,2.22466641 L88.585717,2.0605657 C88.27947,2.04681905 87.9783556,2.01331175 87.6678312,2.01331175 C75.2023778,2.01331175 65.0970799,12.1626367 65.0970799,24.6824001 L65.0970799,39.7951256 C65.1022124,51.9093629 74.5984379,61.8756857 86.6481482,62.4126642 C86.7165833,62.2562959 86.7576444,62.0939137 86.8218024,61.9366863 C76.3674855,59.762997 68.8669985,50.5175142 68.8592994,39.7951256 Z" id="Shape" fill="#92543E"></path>
                        <path d="M95.5155361,3.35551958 L92.7659624,8.85581874 C88.4094612,17.5809058 88.5453062,27.8775071 93.129649,36.483827 C97.2230577,44.176156 97.7827738,53.2678722 94.6643548,61.4060083 C104.039387,58.3843296 110.395735,49.6523572 110.396594,39.7938176 L110.396594,24.6553009 C110.390576,15.1332684 104.447782,6.62764233 95.5155361,3.35551958 Z" id="Shape" fill="#523434"></path>
                        <path d="M95.7701834,3.35551958 L93.0056661,8.83255754 C92.8561158,9.13250474 92.7532462,9.44702098 92.6123405,9.74868227 C101.258589,13.1732236 106.931987,21.4697662 106.940632,30.7004305 L106.940632,45.7749252 C106.941496,48.7195508 106.360584,51.6367527 105.229881,54.3594172 C108.787101,50.2672791 110.740762,45.0421967 110.732118,39.6397172 L110.732118,24.5652224 C110.726066,15.0834594 104.750975,6.61380427 95.7701834,3.35551958 Z" id="Shape" fill="#333333"></path>
                        <path d="M43.2101092,83.9571454 C45.5508375,76.309182 51.4719585,70.2632495 59.096758,67.7347637 L65.0970799,65.7448547 C64.9249042,65.5564813 64.7682243,65.3681078 64.5865791,65.1797343 C57.2768611,57.9110866 45.4277318,57.9110866 38.1188749,65.1797343 L29.2957327,73.9587948 C22.2261999,80.9954007 21.9756845,92.3200719 28.7284139,99.6589316 C35.6963632,96.8761414 41.0217564,91.1024941 43.2101092,83.9571454 Z" id="Shape" fill="#92543E"></path>
                        <path d="M33.4529141,78.5347624 L42.2751953,69.7659969 C47.9234181,64.1530965 56.5296187,62.7246073 63.7041789,66.2084766 L65.0970799,65.7451597 C64.9249042,65.5576063 64.7682243,65.3691964 64.5865791,65.1807866 C57.2768611,57.9107359 45.4277318,57.9107359 38.1188749,65.1807866 L29.2957327,73.953834 C22.2261999,80.9917982 21.9756845,92.3186553 28.7284139,99.6589316 C29.0323041,99.538178 29.3146722,99.3805989 29.6142578,99.246999 C26.4565561,92.2184556 27.9837542,83.9815197 33.4529141,78.5347624 Z" id="Shape" fill="#523434"></path>
                        <path d="M68.0609499,70.4659112 L63.2746192,72.059667 C55.6833357,74.5908254 49.7880503,80.6419559 47.4578744,88.2962677 C45.3727994,95.1357078 40.4227822,100.734418 33.8907478,103.64345 C41.0843844,107.334794 49.8386132,105.964678 55.5607851,100.252863 L64.3432949,91.4709265 C69.8692144,85.9441928 71.3543911,77.55384 68.0609499,70.4659112 Z" id="Shape" fill="#92543E"></path>
                        <path d="M25.6915704,27.4631204 C34.0895108,24.1370676 43.5775478,25.0881027 51.1491384,30.0154934 L57.1039947,33.8907478 C57.1493797,33.6080075 57.2118913,33.3252674 57.2435751,33.0468112 C58.5520337,21.5007293 50.2585646,11.0787543 38.7187822,9.76786778 L24.7855829,8.18709307 C13.620013,6.92847061 3.43921231,14.6806929 1.67775979,25.7846717 C9.01557484,29.9529479 17.8451008,30.5698356 25.6915704,27.4631204 Z" id="Shape" fill="#A55F40"></path>
                        <path d="M27.8953853,13.3737171 L41.8713613,14.9491769 C47.4548797,15.5703042 52.5556386,18.3880188 56.037177,22.7735034 C53.1440555,15.6275471 46.5460548,10.6337505 38.8493894,9.76485537 L24.8734133,8.18854152 C13.6660035,6.92407292 3.44386961,14.6578363 1.67775979,25.7381696 C2.92932708,26.4285011 4.23243432,27.0222887 5.57591475,27.5152606 C8.73532705,18.1590474 18.0340328,12.2673072 27.8953853,13.3737171 Z" id="Shape" fill="#523434"></path>
                        <path d="M55.3660731,40.1157136 L50.5880219,37.0308031 C43.0127078,32.1325919 33.519148,31.1880404 25.1179343,34.4978035 C17.6085893,37.4489951 9.17996008,37.018879 2.01331175,33.3173271 C3.81761085,42.2177454 11.1898771,48.9454398 20.2636333,49.9717559 L34.2036851,51.5431695 C42.9698708,52.5243448 51.4207755,47.9608576 55.3660731,40.1157136 Z" id="Shape" fill="#A55F40"></path>
                        <path d="M90.5872257,2.77740038 C91.0528822,1.84473626 90.6739993,0.712154066 89.7409679,0.246250881 C89.5012663,0.126986489 89.2392272,0.0600612869 88.972033,0.0489069035 L88.664459,0.0300306434 C88.4359265,0.0171603363 88.2091122,0 87.9762839,0 C74.4206937,0.0154443027 63.4348062,10.9869053 63.4193415,24.5255526 L63.4193415,39.6180685 C63.4021586,52.7354296 73.747124,63.530997 86.8697051,64.090424 L86.952183,64.090424 C87.7099488,64.090424 88.3938285,63.6391071 88.6902334,62.9432556 C92.5074146,54.0679296 92.0701099,43.9398992 87.5020358,35.4257983 C83.2157613,27.3844647 83.0894669,17.7686702 87.1626735,9.61751042 L90.5872257,2.77740038 Z M83.782797,7.94094568 C79.1605968,17.1843608 79.3014966,28.0906126 84.1608209,37.2121892 C87.9659741,44.3054142 88.5287142,52.6916707 85.7055635,60.2284904 C75.1647132,59.0993403 67.178101,50.2051378 67.1970023,39.6180685 L67.1970023,24.5255526 C67.2090302,13.9075945 75.235163,5.00652817 85.8078018,3.88681606 L83.782797,7.94094568 Z" id="Shape" fill="#000000"></path>
                        <path d="M96.3470408,1.45875462 C95.4457632,1.12619922 94.4399647,1.52664042 94.0116008,2.38853455 L91.2743556,7.88300193 C86.6651605,17.1404144 86.8056637,28.0631817 91.6513158,37.1985712 C95.4757485,44.3970625 95.9992092,52.9051513 93.0846215,60.5204109 C92.7136582,61.4948753 93.2002796,62.5870661 94.171809,62.9591499 C94.3868477,63.0416443 94.6147372,63.0837507 94.8443402,63.0837507 C95.040531,63.0846102 95.2358647,63.0536746 95.4226315,62.9935226 C105.562004,59.7461669 112.436388,50.2842373 112.409829,39.6080938 L112.409829,24.4927231 C112.373847,14.2041313 105.969807,5.02061988 96.3470408,1.45875462 Z M108.641941,39.6080938 C108.659932,47.2173379 104.515083,54.2233424 97.8488845,57.8539529 C99.6582935,50.273066 98.6396442,42.2900194 94.9831302,35.4120531 C90.7089155,27.3576832 90.5829765,17.7281867 94.643866,9.56468352 L96.5972053,5.64362401 C103.919657,9.04909384 108.615382,16.397106 108.641941,24.4927231 L108.641941,39.6080938 Z" id="Shape" fill="#000000"></path>
                        <path d="M66.1055804,64.1807459 C65.9793511,64.0342802 65.853122,63.8903993 65.7114359,63.7482415 C57.6774142,55.7038352 44.6689283,55.7038352 36.6349066,63.7482415 L27.8349221,72.5783928 C20.0507829,80.3677767 19.7759981,92.9310768 27.2115041,101.055609 C27.7430409,101.638886 28.5785587,101.830153 29.3093145,101.535499 C36.8040709,98.5372621 42.5299,92.2780127 44.8647124,84.5291221 C47.028643,77.4246802 52.4822634,71.8072946 59.5055922,69.4526449 L65.4830211,67.4477898 C66.4722465,67.1178114 67.0072183,66.0451665 66.6774765,65.0517853 C66.5933235,64.7967629 66.4542136,64.5615563 66.2721688,64.3642586 L66.1055804,64.1807459 Z M58.3042672,65.8564843 C50.1225486,68.6014216 43.7681493,75.1475712 41.2495743,83.4271842 C39.3836136,89.6218164 34.9827627,94.7300187 29.1435849,97.4792638 C23.9338361,90.7892332 24.5229062,81.2500164 30.5157918,75.256128 L39.3157762,66.4268384 C45.2288024,60.5079061 54.5774978,59.8445031 61.261639,64.8699957 L58.3042672,65.8564843 Z" id="Shape" fill="#000000"></path>
                        <path d="M45.5024011,87.7416835 C43.5793995,94.09948 39.013661,99.3043709 32.9870573,102.009431 C32.0396773,102.43886 31.616908,103.561585 32.0439565,104.51616 C32.2185414,104.906786 32.5180743,105.22584 32.89463,105.421583 C40.8048682,109.533068 50.4455511,108.00937 56.7271856,101.656747 L65.4975112,92.8189527 C71.5480775,86.6844938 73.177537,77.4077849 69.5848527,69.553884 C69.1826228,68.6769168 68.1907407,68.2449004 67.2818721,68.5501575 L62.4996139,70.1566371 C54.3446147,72.9030881 48.0124874,79.4549039 45.5024011,87.7416835 Z M66.7957729,72.7116556 C68.882234,78.8047238 67.3494809,85.5626312 62.8445048,90.1380373 L54.0733234,98.9758316 C49.9423357,103.158025 43.9345599,104.848149 38.2502798,103.425341 C43.4561631,99.999391 47.299599,94.8384779 49.109634,88.8454377 C51.2645598,81.7331216 56.6997997,76.1108737 63.6986018,73.7533236 L66.7957729,72.7116556 Z" id="Shape" fill="#000000"></path>
                        <path d="M0.968397349,27.2405923 C8.82889384,31.6974268 18.3043136,32.3562112 26.7125768,29.0289654 C34.5773728,25.9435305 43.4585902,26.8270363 50.5511814,31.4017856 L56.5336205,35.2664832 C57.4098752,35.8304229 58.5802217,35.5817768 59.1477666,34.7110877 C59.2930924,34.4889295 59.389403,34.2394288 59.4298192,33.9771113 L59.4788344,33.7011226 C59.5166707,33.4883633 59.554507,33.2781676 59.5794445,33.0619905 C61.0120655,20.5160358 51.9390867,9.19109626 39.3129329,7.76757524 C39.3120731,7.76672084 39.3112132,7.76672084 39.3103531,7.76672084 L25.3186523,6.1911066 C13.0914998,4.79407372 1.93150381,13.2292482 0.0224890012,25.3112342 C-0.0987591674,26.0870789 0.277884361,26.8569423 0.968397349,27.2405923 Z M24.8955733,9.92934492 L38.8872744,11.5058136 C48.5725136,12.5995153 55.9033015,20.7211049 55.9471573,30.408055 L52.6098215,28.253121 C44.4896301,23.015315 34.3211178,22.0044954 25.3169323,25.5376646 C18.410943,28.2693555 10.6570762,27.9275737 4.0219606,24.5986191 C6.20356888,15.1398083 15.1931356,8.82197194 24.8955733,9.92934492 Z" id="Shape" fill="#000000"></path>
                        <path d="M20.0123083,51.9505248 L34.013734,53.5415981 C43.6090563,54.6290471 52.860152,49.5962535 57.1784772,40.9415042 C57.610482,40.0782715 57.3256342,39.0279043 56.5175618,38.5009959 L51.71904,35.3749033 C43.5935662,30.0885729 33.4182216,29.0675263 24.4072242,32.6342903 C17.3738099,35.4240583 9.47810732,35.0170195 2.76654499,31.5201077 C1.83971436,31.0354555 0.697741851,31.3959264 0.21410329,32.3246992 C0.0153122503,32.7075917 -0.0475090879,33.1474005 0.035965859,33.5716869 C1.98687137,43.4052964 10.0684564,50.840654 20.0123083,51.9505248 Z M25.8056455,36.1613851 C33.6720887,33.0499527 42.5531405,33.9416438 49.6467946,38.554463 L52.9660018,40.7164256 C49.0487007,47.0703706 41.8302642,50.5957408 34.4225032,49.7739017 L20.4210777,48.1811037 C13.5313781,47.406695 7.59518666,42.9663499 4.89558794,36.5675616 C11.6863224,38.9632264 19.1121553,38.8183482 25.8056455,36.1613851 Z" id="Shape" fill="#000000"></path>
                    </g>
                    <g id="coffee-bean" transform="translate(276.920791, 77.704290) rotate(123.000000) translate(-276.920791, -77.704290) translate(220.485004, 23.758317)">
                        <path d="M85.7123039,36.4890558 C81.1119701,27.8965391 80.9756513,17.6174801 85.3482116,8.90811687 L88.7889713,2.05798837 C88.4783712,2.04681905 88.1746732,2.01331175 87.8614846,2.01331175 C75.2890796,2.01331175 65.0970799,12.1626367 65.0970799,24.6824001 L65.0970799,39.7951256 C65.1022564,51.9093629 74.679958,61.8756857 86.8330529,62.4126642 C90.4204851,54.0478264 90.008077,44.5153824 85.7123039,36.4890558 Z" id="Shape" fill="#523434"></path>
                        <path d="M68.8592994,39.7951256 L68.8592994,24.6824001 C68.8644321,13.304468 77.2699732,3.69469907 88.5027395,2.22466641 L88.585717,2.0605657 C88.27947,2.04681905 87.9783556,2.01331175 87.6678312,2.01331175 C75.2023778,2.01331175 65.0970799,12.1626367 65.0970799,24.6824001 L65.0970799,39.7951256 C65.1022124,51.9093629 74.5984379,61.8756857 86.6481482,62.4126642 C86.7165833,62.2562959 86.7576444,62.0939137 86.8218024,61.9366863 C76.3674855,59.762997 68.8669985,50.5175142 68.8592994,39.7951256 Z" id="Shape" fill="#92543E"></path>
                        <path d="M95.5155361,3.35551958 L92.7659624,8.85581874 C88.4094612,17.5809058 88.5453062,27.8775071 93.129649,36.483827 C97.2230577,44.176156 97.7827738,53.2678722 94.6643548,61.4060083 C104.039387,58.3843296 110.395735,49.6523572 110.396594,39.7938176 L110.396594,24.6553009 C110.390576,15.1332684 104.447782,6.62764233 95.5155361,3.35551958 Z" id="Shape" fill="#523434"></path>
                        <path d="M95.7701834,3.35551958 L93.0056661,8.83255754 C92.8561158,9.13250474 92.7532462,9.44702098 92.6123405,9.74868227 C101.258589,13.1732236 106.931987,21.4697662 106.940632,30.7004305 L106.940632,45.7749252 C106.941496,48.7195508 106.360584,51.6367527 105.229881,54.3594172 C108.787101,50.2672791 110.740762,45.0421967 110.732118,39.6397172 L110.732118,24.5652224 C110.726066,15.0834594 104.750975,6.61380427 95.7701834,3.35551958 Z" id="Shape" fill="#333333"></path>
                        <path d="M43.2101092,83.9571454 C45.5508375,76.309182 51.4719585,70.2632495 59.096758,67.7347637 L65.0970799,65.7448547 C64.9249042,65.5564813 64.7682243,65.3681078 64.5865791,65.1797343 C57.2768611,57.9110866 45.4277318,57.9110866 38.1188749,65.1797343 L29.2957327,73.9587948 C22.2261999,80.9954007 21.9756845,92.3200719 28.7284139,99.6589316 C35.6963632,96.8761414 41.0217564,91.1024941 43.2101092,83.9571454 Z" id="Shape" fill="#92543E"></path>
                        <path d="M33.4529141,78.5347624 L42.2751953,69.7659969 C47.9234181,64.1530965 56.5296187,62.7246073 63.7041789,66.2084766 L65.0970799,65.7451597 C64.9249042,65.5576063 64.7682243,65.3691964 64.5865791,65.1807866 C57.2768611,57.9107359 45.4277318,57.9107359 38.1188749,65.1807866 L29.2957327,73.953834 C22.2261999,80.9917982 21.9756845,92.3186553 28.7284139,99.6589316 C29.0323041,99.538178 29.3146722,99.3805989 29.6142578,99.246999 C26.4565561,92.2184556 27.9837542,83.9815197 33.4529141,78.5347624 Z" id="Shape" fill="#523434"></path>
                        <path d="M68.0609499,70.4659112 L63.2746192,72.059667 C55.6833357,74.5908254 49.7880503,80.6419559 47.4578744,88.2962677 C45.3727994,95.1357078 40.4227822,100.734418 33.8907478,103.64345 C41.0843844,107.334794 49.8386132,105.964678 55.5607851,100.252863 L64.3432949,91.4709265 C69.8692144,85.9441928 71.3543911,77.55384 68.0609499,70.4659112 Z" id="Shape" fill="#92543E"></path>
                        <path d="M25.6915704,27.4631204 C34.0895108,24.1370676 43.5775478,25.0881027 51.1491384,30.0154934 L57.1039947,33.8907478 C57.1493797,33.6080075 57.2118913,33.3252674 57.2435751,33.0468112 C58.5520337,21.5007293 50.2585646,11.0787543 38.7187822,9.76786778 L24.7855829,8.18709307 C13.620013,6.92847061 3.43921231,14.6806929 1.67775979,25.7846717 C9.01557484,29.9529479 17.8451008,30.5698356 25.6915704,27.4631204 Z" id="Shape" fill="#A55F40"></path>
                        <path d="M27.8953853,13.3737171 L41.8713613,14.9491769 C47.4548797,15.5703042 52.5556386,18.3880188 56.037177,22.7735034 C53.1440555,15.6275471 46.5460548,10.6337505 38.8493894,9.76485537 L24.8734133,8.18854152 C13.6660035,6.92407292 3.44386961,14.6578363 1.67775979,25.7381696 C2.92932708,26.4285011 4.23243432,27.0222887 5.57591475,27.5152606 C8.73532705,18.1590474 18.0340328,12.2673072 27.8953853,13.3737171 Z" id="Shape" fill="#523434"></path>
                        <path d="M55.3660731,40.1157136 L50.5880219,37.0308031 C43.0127078,32.1325919 33.519148,31.1880404 25.1179343,34.4978035 C17.6085893,37.4489951 9.17996008,37.018879 2.01331175,33.3173271 C3.81761085,42.2177454 11.1898771,48.9454398 20.2636333,49.9717559 L34.2036851,51.5431695 C42.9698708,52.5243448 51.4207755,47.9608576 55.3660731,40.1157136 Z" id="Shape" fill="#A55F40"></path>
                        <path d="M90.5872257,2.77740038 C91.0528822,1.84473626 90.6739993,0.712154066 89.7409679,0.246250881 C89.5012663,0.126986489 89.2392272,0.0600612869 88.972033,0.0489069035 L88.664459,0.0300306434 C88.4359265,0.0171603363 88.2091122,0 87.9762839,0 C74.4206937,0.0154443027 63.4348062,10.9869053 63.4193415,24.5255526 L63.4193415,39.6180685 C63.4021586,52.7354296 73.747124,63.530997 86.8697051,64.090424 L86.952183,64.090424 C87.7099488,64.090424 88.3938285,63.6391071 88.6902334,62.9432556 C92.5074146,54.0679296 92.0701099,43.9398992 87.5020358,35.4257983 C83.2157613,27.3844647 83.0894669,17.7686702 87.1626735,9.61751042 L90.5872257,2.77740038 Z M83.782797,7.94094568 C79.1605968,17.1843608 79.3014966,28.0906126 84.1608209,37.2121892 C87.9659741,44.3054142 88.5287142,52.6916707 85.7055635,60.2284904 C75.1647132,59.0993403 67.178101,50.2051378 67.1970023,39.6180685 L67.1970023,24.5255526 C67.2090302,13.9075945 75.235163,5.00652817 85.8078018,3.88681606 L83.782797,7.94094568 Z" id="Shape" fill="#000000"></path>
                        <path d="M96.3470408,1.45875462 C95.4457632,1.12619922 94.4399647,1.52664042 94.0116008,2.38853455 L91.2743556,7.88300193 C86.6651605,17.1404144 86.8056637,28.0631817 91.6513158,37.1985712 C95.4757485,44.3970625 95.9992092,52.9051513 93.0846215,60.5204109 C92.7136582,61.4948753 93.2002796,62.5870661 94.171809,62.9591499 C94.3868477,63.0416443 94.6147372,63.0837507 94.8443402,63.0837507 C95.040531,63.0846102 95.2358647,63.0536746 95.4226315,62.9935226 C105.562004,59.7461669 112.436388,50.2842373 112.409829,39.6080938 L112.409829,24.4927231 C112.373847,14.2041313 105.969807,5.02061988 96.3470408,1.45875462 Z M108.641941,39.6080938 C108.659932,47.2173379 104.515083,54.2233424 97.8488845,57.8539529 C99.6582935,50.273066 98.6396442,42.2900194 94.9831302,35.4120531 C90.7089155,27.3576832 90.5829765,17.7281867 94.643866,9.56468352 L96.5972053,5.64362401 C103.919657,9.04909384 108.615382,16.397106 108.641941,24.4927231 L108.641941,39.6080938 Z" id="Shape" fill="#000000"></path>
                        <path d="M66.1055804,64.1807459 C65.9793511,64.0342802 65.853122,63.8903993 65.7114359,63.7482415 C57.6774142,55.7038352 44.6689283,55.7038352 36.6349066,63.7482415 L27.8349221,72.5783928 C20.0507829,80.3677767 19.7759981,92.9310768 27.2115041,101.055609 C27.7430409,101.638886 28.5785587,101.830153 29.3093145,101.535499 C36.8040709,98.5372621 42.5299,92.2780127 44.8647124,84.5291221 C47.028643,77.4246802 52.4822634,71.8072946 59.5055922,69.4526449 L65.4830211,67.4477898 C66.4722465,67.1178114 67.0072183,66.0451665 66.6774765,65.0517853 C66.5933235,64.7967629 66.4542136,64.5615563 66.2721688,64.3642586 L66.1055804,64.1807459 Z M58.3042672,65.8564843 C50.1225486,68.6014216 43.7681493,75.1475712 41.2495743,83.4271842 C39.3836136,89.6218164 34.9827627,94.7300187 29.1435849,97.4792638 C23.9338361,90.7892332 24.5229062,81.2500164 30.5157918,75.256128 L39.3157762,66.4268384 C45.2288024,60.5079061 54.5774978,59.8445031 61.261639,64.8699957 L58.3042672,65.8564843 Z" id="Shape" fill="#000000"></path>
                        <path d="M45.5024011,87.7416835 C43.5793995,94.09948 39.013661,99.3043709 32.9870573,102.009431 C32.0396773,102.43886 31.616908,103.561585 32.0439565,104.51616 C32.2185414,104.906786 32.5180743,105.22584 32.89463,105.421583 C40.8048682,109.533068 50.4455511,108.00937 56.7271856,101.656747 L65.4975112,92.8189527 C71.5480775,86.6844938 73.177537,77.4077849 69.5848527,69.553884 C69.1826228,68.6769168 68.1907407,68.2449004 67.2818721,68.5501575 L62.4996139,70.1566371 C54.3446147,72.9030881 48.0124874,79.4549039 45.5024011,87.7416835 Z M66.7957729,72.7116556 C68.882234,78.8047238 67.3494809,85.5626312 62.8445048,90.1380373 L54.0733234,98.9758316 C49.9423357,103.158025 43.9345599,104.848149 38.2502798,103.425341 C43.4561631,99.999391 47.299599,94.8384779 49.109634,88.8454377 C51.2645598,81.7331216 56.6997997,76.1108737 63.6986018,73.7533236 L66.7957729,72.7116556 Z" id="Shape" fill="#000000"></path>
                        <path d="M0.968397349,27.2405923 C8.82889384,31.6974268 18.3043136,32.3562112 26.7125768,29.0289654 C34.5773728,25.9435305 43.4585902,26.8270363 50.5511814,31.4017856 L56.5336205,35.2664832 C57.4098752,35.8304229 58.5802217,35.5817768 59.1477666,34.7110877 C59.2930924,34.4889295 59.389403,34.2394288 59.4298192,33.9771113 L59.4788344,33.7011226 C59.5166707,33.4883633 59.554507,33.2781676 59.5794445,33.0619905 C61.0120655,20.5160358 51.9390867,9.19109626 39.3129329,7.76757524 C39.3120731,7.76672084 39.3112132,7.76672084 39.3103531,7.76672084 L25.3186523,6.1911066 C13.0914998,4.79407372 1.93150381,13.2292482 0.0224890012,25.3112342 C-0.0987591674,26.0870789 0.277884361,26.8569423 0.968397349,27.2405923 Z M24.8955733,9.92934492 L38.8872744,11.5058136 C48.5725136,12.5995153 55.9033015,20.7211049 55.9471573,30.408055 L52.6098215,28.253121 C44.4896301,23.015315 34.3211178,22.0044954 25.3169323,25.5376646 C18.410943,28.2693555 10.6570762,27.9275737 4.0219606,24.5986191 C6.20356888,15.1398083 15.1931356,8.82197194 24.8955733,9.92934492 Z" id="Shape" fill="#000000"></path>
                        <path d="M20.0123083,51.9505248 L34.013734,53.5415981 C43.6090563,54.6290471 52.860152,49.5962535 57.1784772,40.9415042 C57.610482,40.0782715 57.3256342,39.0279043 56.5175618,38.5009959 L51.71904,35.3749033 C43.5935662,30.0885729 33.4182216,29.0675263 24.4072242,32.6342903 C17.3738099,35.4240583 9.47810732,35.0170195 2.76654499,31.5201077 C1.83971436,31.0354555 0.697741851,31.3959264 0.21410329,32.3246992 C0.0153122503,32.7075917 -0.0475090879,33.1474005 0.035965859,33.5716869 C1.98687137,43.4052964 10.0684564,50.840654 20.0123083,51.9505248 Z M25.8056455,36.1613851 C33.6720887,33.0499527 42.5531405,33.9416438 49.6467946,38.554463 L52.9660018,40.7164256 C49.0487007,47.0703706 41.8302642,50.5957408 34.4225032,49.7739017 L20.4210777,48.1811037 C13.5313781,47.406695 7.59518666,42.9663499 4.89558794,36.5675616 C11.6863224,38.9632264 19.1121553,38.8183482 25.8056455,36.1613851 Z" id="Shape" fill="#000000"></path>
                    </g>
                </g>
            </g>
        </g>
    </g>
</svg>