<?xml version="1.0" encoding="UTF-8"?>
<svg width="267px" height="54px" viewBox="0 0 267 54" version="1.1" xmlns="http://www.w3.org/2000/svg" xmlns:xlink="http://www.w3.org/1999/xlink">
    <!-- Generator: Sketch 51.3 (57544) - http://www.bohemiancoding.com/sketch -->
    <title>Kaffe Kassen hvid Copy</title>
    <desc>Created with Sketch.</desc>
    <defs></defs>
    <g id="Page-1" stroke="none" stroke-width="1" fill="none" fill-rule="evenodd">
        <g id="Desktop-HD" transform="translate(-590.000000, -13.000000)">
            <g id="Menubar">
                <g id="Kaffe-Kassen-hvid-Copy" transform="translate(590.000000, 20.000000)">
                    <g id="Group-2" transform="translate(0.000000, 3.921569)" fill="#FFFFFF">
                        <path d="M1.01800604,31.372549 C0.812728077,31.372549 0.651440667,31.3139875 0.534138973,31.1968627 C0.416837279,31.079738 0.358187311,30.9186938 0.358187311,30.7137255 L0.358187311,1.28627451 C0.358187311,1.08130616 0.416837279,0.920262024 0.534138973,0.803137255 C0.651440667,0.686012486 0.812728077,0.62745098 1.01800604,0.62745098 L7.96809668,0.62745098 C8.17337464,0.62745098 8.33466205,0.686012486 8.45196375,0.803137255 C8.56926544,0.920262024 8.62791541,1.08130616 8.62791541,1.28627451 L8.62791541,9.9827451 C8.62791541,10.0998699 8.66457164,10.1657516 8.7378852,10.1803922 C8.81119876,10.1950328 8.87717997,10.1437914 8.93583082,10.0266667 L12.6308157,1.1545098 C12.7774428,0.803135498 13.0413677,0.62745098 13.4225982,0.62745098 L20.6806042,0.62745098 C20.9152076,0.62745098 21.0911575,0.700652863 21.2084592,0.847058824 C21.3257609,0.993464784 21.3257609,1.18378968 21.2084592,1.41803922 L15.0061631,14.374902 C14.9768377,14.4920267 14.9768377,14.6091497 15.0061631,14.7262745 L21.3844109,30.6258824 C21.4137363,30.7137259 21.4283988,30.8162086 21.4283988,30.9333333 C21.4283988,31.2261453 21.2377864,31.372549 20.8565559,31.372549 L13.5545619,31.372549 C13.1733314,31.372549 12.9094066,31.1968645 12.7627795,30.8454902 L9.37570997,21.8415686 C9.34638455,21.6951627 9.29506582,21.6219608 9.22175227,21.6219608 C9.14843871,21.6219608 9.08245749,21.6951627 9.02380665,21.8415686 L8.67190332,22.72 C8.6425779,22.7785624 8.62791541,22.8956854 8.62791541,23.0713725 L8.62791541,30.7137255 C8.62791541,30.9186938 8.56926544,31.079738 8.45196375,31.1968627 C8.33466205,31.3139875 8.17337464,31.372549 7.96809668,31.372549 L1.01800604,31.372549 Z" id="Path"></path>
                        <path d="M36.9561329,31.372549 C36.5162516,31.372549 36.2816517,31.1675837 36.2523263,30.7576471 L35.856435,27.4635294 C35.856435,27.3756858 35.8197788,27.3098041 35.7464653,27.2658824 C35.6731517,27.2219606 35.6071705,27.2 35.5485196,27.2 L31.6775831,27.2 C31.530956,27.2 31.4283185,27.2732019 31.3696677,27.4196078 L30.8418127,30.7576471 C30.7831618,31.1675837 30.548562,31.372549 30.138006,31.372549 L23.2319033,31.372549 C22.7626965,31.372549 22.5720842,31.138303 22.6600604,30.6698039 L28.9063444,1.19843137 C28.9943207,0.817775875 29.243583,0.62745098 29.654139,0.62745098 L37.6599396,0.62745098 C38.0704955,0.62745098 38.3197579,0.817775875 38.4077341,1.19843137 L44.6540181,30.6698039 L44.6540181,30.8454902 C44.6540181,31.1968645 44.4487432,31.372549 44.0381873,31.372549 L36.9561329,31.372549 Z M32.4693656,20.6117647 C32.4400401,20.7874519 32.5280151,20.8752941 32.7332931,20.8752941 L34.7127492,20.8752941 C34.8593764,20.8752941 34.9326888,20.7874519 34.9326888,20.6117647 L33.9649547,13.145098 C33.9356293,12.9986921 33.8843105,12.9254902 33.810997,12.9254902 C33.7376834,12.9254902 33.6863647,12.9986921 33.6570393,13.145098 L32.4693656,20.6117647 Z" id="Combined-Shape"></path>
                        <path d="M64.0526888,7.04 C64.0526888,7.24496835 63.9940389,7.40601249 63.8767372,7.52313725 C63.7594355,7.64026202 63.5981481,7.69882353 63.3928701,7.69882353 L54.9911782,7.69882353 C54.8152257,7.69882353 54.7272508,7.78666579 54.7272508,7.96235294 L54.7272508,12.1788235 C54.7272508,12.3545107 54.8152257,12.4423529 54.9911782,12.4423529 L59.3459819,12.4423529 C59.5512598,12.4423529 59.7125472,12.5009144 59.8298489,12.6180392 C59.9471506,12.735164 60.0058006,12.8962081 60.0058006,13.1011765 L60.0058006,18.854902 C60.0058006,19.0598703 59.9471506,19.2209144 59.8298489,19.3380392 C59.7125472,19.455164 59.5512598,19.5137255 59.3459819,19.5137255 L54.9911782,19.5137255 C54.8152257,19.5137255 54.7272508,19.6015677 54.7272508,19.7772549 L54.7272508,30.7137255 C54.7272508,30.9186938 54.6686008,31.079738 54.5512991,31.1968627 C54.4339974,31.3139875 54.27271,31.372549 54.067432,31.372549 L47.1173414,31.372549 C46.9120634,31.372549 46.750776,31.3139875 46.6334743,31.1968627 C46.5161726,31.079738 46.4575227,30.9186938 46.4575227,30.7137255 L46.4575227,1.28627451 C46.4575227,1.08130616 46.5161726,0.920262024 46.6334743,0.803137255 C46.750776,0.686012486 46.9120634,0.62745098 47.1173414,0.62745098 L63.3928701,0.62745098 C63.5981481,0.62745098 63.7594355,0.686012486 63.8767372,0.803137255 C63.9940389,0.920262024 64.0526888,1.08130616 64.0526888,1.28627451 L64.0526888,7.04 Z" id="Path"></path>
                        <path d="M83.0554683,7.04 C83.0554683,7.24496835 82.9968183,7.40601249 82.8795166,7.52313725 C82.7622149,7.64026202 82.6009275,7.69882353 82.3956495,7.69882353 L73.9939577,7.69882353 C73.8180052,7.69882353 73.7300302,7.78666579 73.7300302,7.96235294 L73.7300302,12.1788235 C73.7300302,12.3545107 73.8180052,12.4423529 73.9939577,12.4423529 L78.3487613,12.4423529 C78.5540393,12.4423529 78.7153267,12.5009144 78.8326284,12.6180392 C78.9499301,12.735164 79.0085801,12.8962081 79.0085801,13.1011765 L79.0085801,18.854902 C79.0085801,19.0598703 78.9499301,19.2209144 78.8326284,19.3380392 C78.7153267,19.455164 78.5540393,19.5137255 78.3487613,19.5137255 L73.9939577,19.5137255 C73.8180052,19.5137255 73.7300302,19.6015677 73.7300302,19.7772549 L73.7300302,30.7137255 C73.7300302,30.9186938 73.6713802,31.079738 73.5540785,31.1968627 C73.4367769,31.3139875 73.2754894,31.372549 73.0702115,31.372549 L66.1201208,31.372549 C65.9148429,31.372549 65.7535555,31.3139875 65.6362538,31.1968627 C65.5189521,31.079738 65.4603021,30.9186938 65.4603021,30.7137255 L65.4603021,1.28627451 C65.4603021,1.08130616 65.5189521,0.920262024 65.6362538,0.803137255 C65.7535555,0.686012486 65.9148429,0.62745098 66.1201208,0.62745098 L82.3956495,0.62745098 C82.6009275,0.62745098 82.7622149,0.686012486 82.8795166,0.803137255 C82.9968183,0.920262024 83.0554683,1.08130616 83.0554683,1.28627451 L83.0554683,7.04 Z" id="Path"></path>
                        <path d="M102.058248,7.04 C102.058248,7.24496835 101.999598,7.40601249 101.882296,7.52313725 C101.764994,7.64026202 101.603707,7.69882353 101.398429,7.69882353 L92.9967372,7.69882353 C92.8207846,7.69882353 92.7328097,7.78666579 92.7328097,7.96235294 L92.7328097,12.1788235 C92.7328097,12.3545107 92.8207846,12.4423529 92.9967372,12.4423529 L97.3515408,12.4423529 C97.5568188,12.4423529 97.7181062,12.5009144 97.8354079,12.6180392 C97.9527095,12.735164 98.0113595,12.8962081 98.0113595,13.1011765 L98.0113595,18.854902 C98.0113595,19.0598703 97.9527095,19.2209144 97.8354079,19.3380392 C97.7181062,19.455164 97.5568188,19.5137255 97.3515408,19.5137255 L92.9967372,19.5137255 C92.8207846,19.5137255 92.7328097,19.6015677 92.7328097,19.7772549 L92.7328097,24.0376471 C92.7328097,24.2133342 92.8207846,24.3011765 92.9967372,24.3011765 L101.398429,24.3011765 C101.603707,24.3011765 101.764994,24.359738 101.882296,24.4768627 C101.999598,24.5939875 102.058248,24.7550317 102.058248,24.96 L102.058248,30.7137255 C102.058248,30.9186938 101.999598,31.079738 101.882296,31.1968627 C101.764994,31.3139875 101.603707,31.372549 101.398429,31.372549 L85.1229003,31.372549 C84.9176223,31.372549 84.7563349,31.3139875 84.6390332,31.1968627 C84.5217315,31.079738 84.4630816,30.9186938 84.4630816,30.7137255 L84.4630816,1.28627451 C84.4630816,1.08130616 84.5217315,0.920262024 84.6390332,0.803137255 C84.7563349,0.686012486 84.9176223,0.62745098 85.1229003,0.62745098 L101.398429,0.62745098 C101.603707,0.62745098 101.764994,0.686012486 101.882296,0.803137255 C101.999598,0.920262024 102.058248,1.08130616 102.058248,1.28627451 L102.058248,7.04 Z" id="Path"></path>
                    </g>
                    <g id="Group" transform="translate(127.250755, 3.921569)" fill="#FFFFFF">
                        <path d="M1.12483384,31.372549 C0.919555872,31.372549 0.758268462,31.3139875 0.640966767,31.1968627 C0.523665073,31.079738 0.465015106,30.9186938 0.465015106,30.7137255 L0.465015106,1.28627451 C0.465015106,1.08130616 0.523665073,0.920262024 0.640966767,0.803137255 C0.758268462,0.686012486 0.919555872,0.62745098 1.12483384,0.62745098 L8.07492447,0.62745098 C8.28020244,0.62745098 8.44148985,0.686012486 8.55879154,0.803137255 C8.67609324,0.920262024 8.7347432,1.08130616 8.7347432,1.28627451 L8.7347432,9.9827451 C8.7347432,10.0998699 8.77139943,10.1657516 8.84471299,10.1803922 C8.91802655,10.1950328 8.98400776,10.1437914 9.04265861,10.0266667 L12.7376435,1.1545098 C12.8842706,0.803135498 13.1481955,0.62745098 13.529426,0.62745098 L20.787432,0.62745098 C21.0220354,0.62745098 21.1979853,0.700652863 21.315287,0.847058824 C21.4325887,0.993464784 21.4325887,1.18378968 21.315287,1.41803922 L15.1129909,14.374902 C15.0836655,14.4920267 15.0836655,14.6091497 15.1129909,14.7262745 L21.4912387,30.6258824 C21.5205641,30.7137259 21.5352266,30.8162086 21.5352266,30.9333333 C21.5352266,31.2261453 21.3446142,31.372549 20.9633837,31.372549 L13.6613897,31.372549 C13.2801592,31.372549 13.0162344,31.1968645 12.8696073,30.8454902 L9.48253776,21.8415686 C9.45321234,21.6951627 9.40189362,21.6219608 9.32858006,21.6219608 C9.2552665,21.6219608 9.18928529,21.6951627 9.13063444,21.8415686 L8.77873112,22.72 C8.74940569,22.7785624 8.7347432,22.8956854 8.7347432,23.0713725 L8.7347432,30.7137255 C8.7347432,30.9186938 8.67609324,31.079738 8.55879154,31.1968627 C8.44148985,31.3139875 8.28020244,31.372549 8.07492447,31.372549 L1.12483384,31.372549 Z" id="Path"></path>
                        <path d="M37.0629607,31.372549 C36.6230794,31.372549 36.3884795,31.1675837 36.3591541,30.7576471 L35.9632628,27.4635294 C35.9632628,27.3756858 35.9266066,27.3098041 35.8532931,27.2658824 C35.7799795,27.2219606 35.7139983,27.2 35.6553474,27.2 L31.7844109,27.2 C31.6377838,27.2 31.5351463,27.2732019 31.4764955,27.4196078 L30.9486405,30.7576471 C30.8899896,31.1675837 30.6553898,31.372549 30.2448338,31.372549 L23.3387311,31.372549 C22.8695243,31.372549 22.6789119,31.138303 22.7668882,30.6698039 L29.0131722,1.19843137 C29.1011485,0.817775875 29.3504108,0.62745098 29.7609668,0.62745098 L37.7667674,0.62745098 C38.1773233,0.62745098 38.4265857,0.817775875 38.5145619,1.19843137 L44.7608459,30.6698039 L44.7608459,30.8454902 C44.7608459,31.1968645 44.555571,31.372549 44.1450151,31.372549 L37.0629607,31.372549 Z M32.5761934,20.6117647 C32.5468679,20.7874519 32.6348429,20.8752941 32.8401208,20.8752941 L34.819577,20.8752941 C34.9662042,20.8752941 35.0395166,20.7874519 35.0395166,20.6117647 L34.0717825,13.145098 C34.0424571,12.9986921 33.9911383,12.9254902 33.9178248,12.9254902 C33.8445112,12.9254902 33.7931925,12.9986921 33.7638671,13.145098 L32.5761934,20.6117647 Z" id="Combined-Shape"></path>
                        <path d="M55.7578248,31.7239216 C53.8809977,31.7239216 52.2387986,31.3725525 50.8311782,30.6698039 C49.4235579,29.9670553 48.3312023,28.9934703 47.5540785,27.7490196 C46.7769548,26.5045689 46.3883988,25.0771322 46.3883988,23.4666667 L46.3883988,21.9733333 C46.3883988,21.768365 46.4470488,21.6073208 46.5643505,21.4901961 C46.6816521,21.3730713 46.8429396,21.3145098 47.0482175,21.3145098 L53.9103323,21.3145098 C54.1156103,21.3145098 54.2768977,21.3730713 54.3941994,21.4901961 C54.5115011,21.6073208 54.5701511,21.768365 54.5701511,21.9733333 L54.5701511,23.0713725 C54.5701511,23.5398716 54.687451,23.9205214 54.9220544,24.2133333 C55.1566578,24.5061453 55.4499076,24.652549 55.8018127,24.652549 C56.1537178,24.652549 56.4469676,24.5207856 56.681571,24.2572549 C56.9161744,23.9937242 57.0334743,23.6569955 57.0334743,23.2470588 C57.0334743,22.7492786 56.7988745,22.2588259 56.3296677,21.7756863 C55.8604609,21.2925466 54.8780739,20.5239268 53.3824773,19.4698039 C51.9162062,18.4449622 50.7065506,17.5079781 49.7534743,16.6588235 C48.8003981,15.809669 47.9719673,14.7409215 47.2681571,13.452549 C46.5643469,12.1641766 46.2124471,10.6854985 46.2124471,9.01647059 C46.2124471,7.28888025 46.6010032,5.7662811 47.3781269,4.44862745 C48.1552506,3.1309738 49.2549375,2.10614745 50.6772205,1.37411765 C52.0995036,0.642087843 53.7343714,0.276078431 55.5818731,0.276078431 C57.4587002,0.276078431 59.1082306,0.642087843 60.5305136,1.37411765 C61.9527966,2.10614745 63.0524835,3.1309738 63.8296073,4.44862745 C64.606731,5.7662811 64.995287,7.28888025 64.995287,9.01647059 L64.995287,9.9827451 C64.995287,10.1877134 64.936637,10.3487576 64.8193353,10.4658824 C64.7020337,10.5830071 64.5407462,10.6415686 64.3354683,10.6415686 L57.5173414,10.6415686 C57.3120634,10.6415686 57.150776,10.5830071 57.0334743,10.4658824 C56.9161726,10.3487576 56.8575227,10.1877134 56.8575227,9.9827451 L56.8575227,8.84078431 C56.8575227,8.40156643 56.7402227,8.04287721 56.5056193,7.76470588 C56.2710159,7.48653456 55.9631036,7.34745098 55.5818731,7.34745098 C55.2006426,7.34745098 54.9000615,7.49385475 54.6801208,7.78666667 C54.4601802,8.07947859 54.3502115,8.47476875 54.3502115,8.97254902 C54.3502115,9.55817286 54.5848113,10.1218274 55.0540181,10.6635294 C55.5232249,11.2052315 56.4616244,11.9884916 57.8692447,13.0133333 C59.7460718,14.3895494 61.1610023,15.502218 62.1140785,16.3513725 C63.0671548,17.2005271 63.8149419,18.1594718 64.3574622,19.2282353 C64.8999826,20.2969988 65.1712387,21.548751 65.1712387,22.9835294 C65.1712387,25.6481179 64.3061517,27.7709725 62.5759517,29.3521569 C60.8457517,30.9333412 58.5730654,31.7239216 55.7578248,31.7239216 Z" id="Path"></path>
                        <path d="M76.1242296,31.7239216 C74.2474025,31.7239216 72.6052034,31.3725525 71.1975831,30.6698039 C69.7899628,29.9670553 68.6976071,28.9934703 67.9204834,27.7490196 C67.1433597,26.5045689 66.7548036,25.0771322 66.7548036,23.4666667 L66.7548036,21.9733333 C66.7548036,21.768365 66.8134536,21.6073208 66.9307553,21.4901961 C67.048057,21.3730713 67.2093444,21.3145098 67.4146224,21.3145098 L74.2767372,21.3145098 C74.4820151,21.3145098 74.6433025,21.3730713 74.7606042,21.4901961 C74.8779059,21.6073208 74.9365559,21.768365 74.9365559,21.9733333 L74.9365559,23.0713725 C74.9365559,23.5398716 75.0538558,23.9205214 75.2884592,24.2133333 C75.5230626,24.5061453 75.8163124,24.652549 76.1682175,24.652549 C76.5201226,24.652549 76.8133724,24.5207856 77.0479758,24.2572549 C77.2825792,23.9937242 77.3998792,23.6569955 77.3998792,23.2470588 C77.3998792,22.7492786 77.1652793,22.2588259 76.6960725,21.7756863 C76.2268657,21.2925466 75.2444788,20.5239268 73.7488822,19.4698039 C72.282611,18.4449622 71.0729554,17.5079781 70.1198792,16.6588235 C69.1668029,15.809669 68.3383721,14.7409215 67.6345619,13.452549 C66.9307518,12.1641766 66.578852,10.6854985 66.578852,9.01647059 C66.578852,7.28888025 66.967408,5.7662811 67.7445317,4.44862745 C68.5216554,3.1309738 69.6213423,2.10614745 71.0436254,1.37411765 C72.4659084,0.642087843 74.1007763,0.276078431 75.9482779,0.276078431 C77.8251051,0.276078431 79.4746354,0.642087843 80.8969184,1.37411765 C82.3192015,2.10614745 83.4188884,3.1309738 84.1960121,4.44862745 C84.9731358,5.7662811 85.3616918,7.28888025 85.3616918,9.01647059 L85.3616918,9.9827451 C85.3616918,10.1877134 85.3030419,10.3487576 85.1857402,10.4658824 C85.0684385,10.5830071 84.9071511,10.6415686 84.7018731,10.6415686 L77.8837462,10.6415686 C77.6784683,10.6415686 77.5171808,10.5830071 77.3998792,10.4658824 C77.2825775,10.3487576 77.2239275,10.1877134 77.2239275,9.9827451 L77.2239275,8.84078431 C77.2239275,8.40156643 77.1066276,8.04287721 76.8720242,7.76470588 C76.6374208,7.48653456 76.3295085,7.34745098 75.9482779,7.34745098 C75.5670474,7.34745098 75.2664664,7.49385475 75.0465257,7.78666667 C74.826585,8.07947859 74.7166163,8.47476875 74.7166163,8.97254902 C74.7166163,9.55817286 74.9512162,10.1218274 75.420423,10.6635294 C75.8896297,11.2052315 76.8280292,11.9884916 78.2356495,13.0133333 C80.1124767,14.3895494 81.5274071,15.502218 82.4804834,16.3513725 C83.4335596,17.2005271 84.1813467,18.1594718 84.7238671,19.2282353 C85.2663874,20.2969988 85.5376435,21.548751 85.5376435,22.9835294 C85.5376435,25.6481179 84.6725565,27.7709725 82.9423565,29.3521569 C81.2121565,30.9333412 78.9394703,31.7239216 76.1242296,31.7239216 Z" id="Path"></path>
                        <path d="M104.892326,7.04 C104.892326,7.24496835 104.833676,7.40601249 104.716375,7.52313725 C104.599073,7.64026202 104.437786,7.69882353 104.232508,7.69882353 L95.8308157,7.69882353 C95.6548632,7.69882353 95.5668882,7.78666579 95.5668882,7.96235294 L95.5668882,12.1788235 C95.5668882,12.3545107 95.6548632,12.4423529 95.8308157,12.4423529 L100.185619,12.4423529 C100.390897,12.4423529 100.552185,12.5009144 100.669486,12.6180392 C100.786788,12.735164 100.845438,12.8962081 100.845438,13.1011765 L100.845438,18.854902 C100.845438,19.0598703 100.786788,19.2209144 100.669486,19.3380392 C100.552185,19.455164 100.390897,19.5137255 100.185619,19.5137255 L95.8308157,19.5137255 C95.6548632,19.5137255 95.5668882,19.6015677 95.5668882,19.7772549 L95.5668882,24.0376471 C95.5668882,24.2133342 95.6548632,24.3011765 95.8308157,24.3011765 L104.232508,24.3011765 C104.437786,24.3011765 104.599073,24.359738 104.716375,24.4768627 C104.833676,24.5939875 104.892326,24.7550317 104.892326,24.96 L104.892326,30.7137255 C104.892326,30.9186938 104.833676,31.079738 104.716375,31.1968627 C104.599073,31.3139875 104.437786,31.372549 104.232508,31.372549 L87.9569789,31.372549 C87.7517009,31.372549 87.5904135,31.3139875 87.4731118,31.1968627 C87.3558101,31.079738 87.2971601,30.9186938 87.2971601,30.7137255 L87.2971601,1.28627451 C87.2971601,1.08130616 87.3558101,0.920262024 87.4731118,0.803137255 C87.5904135,0.686012486 87.7517009,0.62745098 87.9569789,0.62745098 L104.232508,0.62745098 C104.437786,0.62745098 104.599073,0.686012486 104.716375,0.803137255 C104.833676,0.920262024 104.892326,1.08130616 104.892326,1.28627451 L104.892326,7.04 Z" id="Path"></path>
                        <path d="M107.487613,31.372549 C107.282335,31.372549 107.121048,31.3139875 107.003746,31.1968627 C106.886445,31.079738 106.827795,30.9186938 106.827795,30.7137255 L106.827795,1.28627451 C106.827795,1.08130616 106.886445,0.920262024 107.003746,0.803137255 C107.121048,0.686012486 107.282335,0.62745098 107.487613,0.62745098 L115.229486,0.62745098 C115.610717,0.62745098 115.845317,0.817775875 115.933293,1.19843137 L119.320363,14.5945098 C119.349688,14.7116346 119.408338,14.7701961 119.496314,14.7701961 C119.58429,14.7701961 119.628278,14.7116346 119.628278,14.5945098 L119.58429,1.28627451 C119.58429,1.08130616 119.64294,0.920262024 119.760242,0.803137255 C119.877543,0.686012486 120.038831,0.62745098 120.244109,0.62745098 L127.106224,0.62745098 C127.311502,0.62745098 127.472789,0.686012486 127.590091,0.803137255 C127.707392,0.920262024 127.766042,1.08130616 127.766042,1.28627451 L127.766042,30.7137255 C127.766042,30.9186938 127.707392,31.079738 127.590091,31.1968627 C127.472789,31.3139875 127.311502,31.372549 127.106224,31.372549 L119.276375,31.372549 C118.895144,31.372549 118.660544,31.1822241 118.572568,30.8015686 L115.229486,17.3176471 C115.200161,17.2298035 115.141511,17.1932025 115.053535,17.2078431 C114.965558,17.2224837 114.921571,17.2737251 114.921571,17.3615686 L115.009547,30.7137255 C115.009547,30.9186938 114.950897,31.079738 114.833595,31.1968627 C114.716293,31.3139875 114.555006,31.372549 114.349728,31.372549 L107.487613,31.372549 Z" id="Path"></path>
                    </g>
                    <rect id="Rectangle" stroke="#FFFFFF" stroke-width="6.2745098" fill-rule="nonzero" x="119.400509" y="-3.1372549" width="143.736745" height="46.2745098"></rect>
                </g>
            </g>
        </g>
    </g>
</svg>